<?xml version="1.0" encoding="utf-8" standalone="no"?>
<!DOCTYPE svg PUBLIC "-//W3C//DTD SVG 1.1//EN"
  "http://www.w3.org/Graphics/SVG/1.1/DTD/svg11.dtd">
<svg xmlns:xlink="http://www.w3.org/1999/xlink" width="720pt" height="360pt" viewBox="0 0 720 360" xmlns="http://www.w3.org/2000/svg" version="1.1">
 <metadata>
  <rdf:RDF xmlns:dc="http://purl.org/dc/elements/1.1/" xmlns:cc="http://creativecommons.org/ns#" xmlns:rdf="http://www.w3.org/1999/02/22-rdf-syntax-ns#">
   <cc:Work>
    <dc:type rdf:resource="http://purl.org/dc/dcmitype/StillImage"/>
    <dc:date>2024-04-25T11:02:54.673719</dc:date>
    <dc:format>image/svg+xml</dc:format>
    <dc:creator>
     <cc:Agent>
      <dc:title>Matplotlib v3.8.0, https://matplotlib.org/</dc:title>
     </cc:Agent>
    </dc:creator>
   </cc:Work>
  </rdf:RDF>
 </metadata>
 <defs>
  <style type="text/css">*{stroke-linejoin: round; stroke-linecap: butt}</style>
 </defs>
 <g id="figure_1">
  <g id="patch_1">
   <path d="M 0 360 
L 720 360 
L 720 0 
L 0 0 
z
" style="fill: #ffffff"/>
  </g>
  <g id="axes_1">
   <g id="patch_2">
    <path d="M 90 320.4 
L 648 320.4 
L 648 43.2 
L 90 43.2 
z
" style="fill: #ffffff"/>
   </g>
   <g id="patch_3">
    <path d="M 90.2232 320.4 
L 100.117315 320.4 
L 100.117315 316.661206 
L 90.2232 316.661206 
z
" clip-path="url(#p9fc4190f57)" style="fill: #0000ff; opacity: 0.5; stroke: #000000; stroke-linejoin: miter"/>
   </g>
   <g id="patch_4">
    <path d="M 100.117315 320.4 
L 110.01143 320.4 
L 110.01143 314.049985 
L 100.117315 314.049985 
z
" clip-path="url(#p9fc4190f57)" style="fill: #0000ff; opacity: 0.5; stroke: #000000; stroke-linejoin: miter"/>
   </g>
   <g id="patch_5">
    <path d="M 110.01143 320.4 
L 119.905545 320.4 
L 119.905545 256.543777 
L 110.01143 256.543777 
z
" clip-path="url(#p9fc4190f57)" style="fill: #0000ff; opacity: 0.5; stroke: #000000; stroke-linejoin: miter"/>
   </g>
   <g id="patch_6">
    <path d="M 119.905545 320.4 
L 129.79966 320.4 
L 129.79966 170.314138 
L 119.905545 170.314138 
z
" clip-path="url(#p9fc4190f57)" style="fill: #0000ff; opacity: 0.5; stroke: #000000; stroke-linejoin: miter"/>
   </g>
   <g id="patch_7">
    <path d="M 129.79966 320.4 
L 139.693775 320.4 
L 139.693775 137.495837 
L 129.79966 137.495837 
z
" clip-path="url(#p9fc4190f57)" style="fill: #0000ff; opacity: 0.5; stroke: #000000; stroke-linejoin: miter"/>
   </g>
   <g id="patch_8">
    <path d="M 139.693775 320.4 
L 149.58789 320.4 
L 149.58789 136.486956 
L 139.693775 136.486956 
z
" clip-path="url(#p9fc4190f57)" style="fill: #0000ff; opacity: 0.5; stroke: #000000; stroke-linejoin: miter"/>
   </g>
   <g id="patch_9">
    <path d="M 149.58789 320.4 
L 159.482005 320.4 
L 159.482005 104.618191 
L 149.58789 104.618191 
z
" clip-path="url(#p9fc4190f57)" style="fill: #0000ff; opacity: 0.5; stroke: #000000; stroke-linejoin: miter"/>
   </g>
   <g id="patch_10">
    <path d="M 159.482005 320.4 
L 169.37612 320.4 
L 169.37612 71.740544 
L 159.482005 71.740544 
z
" clip-path="url(#p9fc4190f57)" style="fill: #0000ff; opacity: 0.5; stroke: #000000; stroke-linejoin: miter"/>
   </g>
   <g id="patch_11">
    <path d="M 169.37612 320.4 
L 179.270235 320.4 
L 179.270235 91.740123 
L 169.37612 91.740123 
z
" clip-path="url(#p9fc4190f57)" style="fill: #0000ff; opacity: 0.5; stroke: #000000; stroke-linejoin: miter"/>
   </g>
   <g id="patch_12">
    <path d="M 179.270235 320.4 
L 189.16435 320.4 
L 189.16435 110.671476 
L 179.270235 110.671476 
z
" clip-path="url(#p9fc4190f57)" style="fill: #0000ff; opacity: 0.5; stroke: #000000; stroke-linejoin: miter"/>
   </g>
   <g id="patch_13">
    <path d="M 189.16435 320.4 
L 199.058465 320.4 
L 199.058465 155.180925 
L 189.16435 155.180925 
z
" clip-path="url(#p9fc4190f57)" style="fill: #0000ff; opacity: 0.5; stroke: #000000; stroke-linejoin: miter"/>
   </g>
   <g id="patch_14">
    <path d="M 199.058465 320.4 
L 208.95258 320.4 
L 208.95258 218.85911 
L 199.058465 218.85911 
z
" clip-path="url(#p9fc4190f57)" style="fill: #0000ff; opacity: 0.5; stroke: #000000; stroke-linejoin: miter"/>
   </g>
   <g id="patch_15">
    <path d="M 208.95258 320.4 
L 218.846695 320.4 
L 218.846695 255.712934 
L 208.95258 255.712934 
z
" clip-path="url(#p9fc4190f57)" style="fill: #0000ff; opacity: 0.5; stroke: #000000; stroke-linejoin: miter"/>
   </g>
   <g id="patch_16">
    <path d="M 218.846695 320.4 
L 228.74081 320.4 
L 228.74081 281.291031 
L 218.846695 281.291031 
z
" clip-path="url(#p9fc4190f57)" style="fill: #0000ff; opacity: 0.5; stroke: #000000; stroke-linejoin: miter"/>
   </g>
   <g id="patch_17">
    <path d="M 228.74081 320.4 
L 238.634925 320.4 
L 238.634925 298.204621 
L 228.74081 298.204621 
z
" clip-path="url(#p9fc4190f57)" style="fill: #0000ff; opacity: 0.5; stroke: #000000; stroke-linejoin: miter"/>
   </g>
   <g id="patch_18">
    <path d="M 238.634925 320.4 
L 248.52904 320.4 
L 248.52904 306.750436 
L 238.634925 306.750436 
z
" clip-path="url(#p9fc4190f57)" style="fill: #0000ff; opacity: 0.5; stroke: #000000; stroke-linejoin: miter"/>
   </g>
   <g id="patch_19">
    <path d="M 248.52904 320.4 
L 258.423155 320.4 
L 258.423155 311.913532 
L 248.52904 311.913532 
z
" clip-path="url(#p9fc4190f57)" style="fill: #0000ff; opacity: 0.5; stroke: #000000; stroke-linejoin: miter"/>
   </g>
   <g id="patch_20">
    <path d="M 258.423155 320.4 
L 268.31727 320.4 
L 268.31727 314.880828 
L 258.423155 314.880828 
z
" clip-path="url(#p9fc4190f57)" style="fill: #0000ff; opacity: 0.5; stroke: #000000; stroke-linejoin: miter"/>
   </g>
   <g id="patch_21">
    <path d="M 268.31727 320.4 
L 278.211385 320.4 
L 278.211385 316.008401 
L 268.31727 316.008401 
z
" clip-path="url(#p9fc4190f57)" style="fill: #0000ff; opacity: 0.5; stroke: #000000; stroke-linejoin: miter"/>
   </g>
   <g id="patch_22">
    <path d="M 278.211385 320.4 
L 288.1055 320.4 
L 288.1055 317.492049 
L 278.211385 317.492049 
z
" clip-path="url(#p9fc4190f57)" style="fill: #0000ff; opacity: 0.5; stroke: #000000; stroke-linejoin: miter"/>
   </g>
   <g id="patch_23">
    <path d="M 288.1055 320.4 
L 297.999615 320.4 
L 297.999615 318.322892 
L 288.1055 318.322892 
z
" clip-path="url(#p9fc4190f57)" style="fill: #0000ff; opacity: 0.5; stroke: #000000; stroke-linejoin: miter"/>
   </g>
   <g id="patch_24">
    <path d="M 297.999615 320.4 
L 307.89373 320.4 
L 307.89373 319.094389 
L 297.999615 319.094389 
z
" clip-path="url(#p9fc4190f57)" style="fill: #0000ff; opacity: 0.5; stroke: #000000; stroke-linejoin: miter"/>
   </g>
   <g id="patch_25">
    <path d="M 307.89373 320.4 
L 317.787845 320.4 
L 317.787845 319.628503 
L 307.89373 319.628503 
z
" clip-path="url(#p9fc4190f57)" style="fill: #0000ff; opacity: 0.5; stroke: #000000; stroke-linejoin: miter"/>
   </g>
   <g id="patch_26">
    <path d="M 317.787845 320.4 
L 327.68196 320.4 
L 327.68196 319.984578 
L 317.787845 319.984578 
z
" clip-path="url(#p9fc4190f57)" style="fill: #0000ff; opacity: 0.5; stroke: #000000; stroke-linejoin: miter"/>
   </g>
   <g id="patch_27">
    <path d="M 327.68196 320.4 
L 337.576075 320.4 
L 337.576075 319.687849 
L 327.68196 319.687849 
z
" clip-path="url(#p9fc4190f57)" style="fill: #0000ff; opacity: 0.5; stroke: #000000; stroke-linejoin: miter"/>
   </g>
   <g id="patch_28">
    <path d="M 337.576075 320.4 
L 347.47019 320.4 
L 347.47019 319.984578 
L 337.576075 319.984578 
z
" clip-path="url(#p9fc4190f57)" style="fill: #0000ff; opacity: 0.5; stroke: #000000; stroke-linejoin: miter"/>
   </g>
   <g id="patch_29">
    <path d="M 347.47019 320.4 
L 357.364305 320.4 
L 357.364305 320.162616 
L 347.47019 320.162616 
z
" clip-path="url(#p9fc4190f57)" style="fill: #0000ff; opacity: 0.5; stroke: #000000; stroke-linejoin: miter"/>
   </g>
   <g id="patch_30">
    <path d="M 357.364305 320.4 
L 367.25842 320.4 
L 367.25842 320.281308 
L 357.364305 320.281308 
z
" clip-path="url(#p9fc4190f57)" style="fill: #0000ff; opacity: 0.5; stroke: #000000; stroke-linejoin: miter"/>
   </g>
   <g id="patch_31">
    <path d="M 367.25842 320.4 
L 377.152535 320.4 
L 377.152535 320.281308 
L 367.25842 320.281308 
z
" clip-path="url(#p9fc4190f57)" style="fill: #0000ff; opacity: 0.5; stroke: #000000; stroke-linejoin: miter"/>
   </g>
   <g id="patch_32">
    <path d="M 377.152535 320.4 
L 387.04665 320.4 
L 387.04665 320.221962 
L 377.152535 320.221962 
z
" clip-path="url(#p9fc4190f57)" style="fill: #0000ff; opacity: 0.5; stroke: #000000; stroke-linejoin: miter"/>
   </g>
   <g id="matplotlib.axis_1">
    <g id="xtick_1">
     <g id="line2d_1">
      <defs>
       <path id="mb9dee61412" d="M 0 0 
L 0 3.5 
" style="stroke: #000000; stroke-width: 0.8"/>
      </defs>
      <g>
       <use xlink:href="#mb9dee61412" x="90" y="320.4" style="stroke: #000000; stroke-width: 0.8"/>
      </g>
     </g>
     <g id="text_1">
      <!-- 0 -->
      <g transform="translate(87.5 334.548437) scale(0.1 -0.1)">
       <defs>
        <path id="SimSun-30" d="M 1600 4225 
Q 1250 4225 1012 3687 
Q 775 3150 775 2250 
Q 775 1300 1012 775 
Q 1250 250 1600 250 
Q 1975 250 2187 775 
Q 2400 1300 2400 2250 
Q 2400 3150 2200 3687 
Q 2000 4225 1600 4225 
z
M 1600 50 
Q 1050 50 675 625 
Q 300 1200 300 2250 
Q 300 3225 662 3825 
Q 1025 4425 1600 4425 
Q 2150 4425 2512 3850 
Q 2875 3275 2875 2250 
Q 2875 1225 2512 637 
Q 2150 50 1600 50 
z
" transform="scale(0.015625)"/>
       </defs>
       <use xlink:href="#SimSun-30"/>
      </g>
     </g>
    </g>
    <g id="xtick_2">
     <g id="line2d_2">
      <g>
       <use xlink:href="#mb9dee61412" x="183" y="320.4" style="stroke: #000000; stroke-width: 0.8"/>
      </g>
     </g>
     <g id="text_2">
      <!-- 20 -->
      <g transform="translate(178 334.548437) scale(0.1 -0.1)">
       <defs>
        <path id="SimSun-32" d="M 2325 3325 
Q 2325 3775 2125 4012 
Q 1925 4250 1525 4250 
Q 1225 4250 1012 4087 
Q 800 3925 800 3675 
Q 800 3525 900 3425 
Q 975 3325 975 3225 
Q 975 3100 912 3037 
Q 850 2975 725 2975 
Q 575 2975 487 3062 
Q 400 3150 400 3350 
Q 400 3875 775 4150 
Q 1150 4425 1575 4425 
Q 2175 4425 2462 4125 
Q 2750 3825 2750 3375 
Q 2750 3075 2612 2775 
Q 2475 2475 2175 2200 
Q 1450 1500 1062 1062 
Q 675 625 600 475 
L 2075 475 
Q 2300 475 2450 650 
Q 2600 825 2650 1175 
L 2800 1175 
L 2650 100 
L 325 100 
L 325 425 
Q 450 650 737 1000 
Q 1025 1350 1500 1825 
Q 1925 2250 2125 2625 
Q 2325 3000 2325 3325 
z
" transform="scale(0.015625)"/>
       </defs>
       <use xlink:href="#SimSun-32"/>
       <use xlink:href="#SimSun-30" x="50"/>
      </g>
     </g>
    </g>
    <g id="xtick_3">
     <g id="line2d_3">
      <g>
       <use xlink:href="#mb9dee61412" x="276" y="320.4" style="stroke: #000000; stroke-width: 0.8"/>
      </g>
     </g>
     <g id="text_3">
      <!-- 40 -->
      <g transform="translate(271 334.548437) scale(0.1 -0.1)">
       <defs>
        <path id="SimSun-34" d="M 2300 575 
Q 2300 400 2400 325 
Q 2500 250 2675 250 
L 2900 250 
L 2900 100 
L 1250 100 
L 1250 250 
L 1525 250 
Q 1725 250 1812 325 
Q 1900 400 1900 575 
L 1900 1400 
L 225 1400 
L 225 1525 
L 2050 4425 
L 2300 4425 
L 2300 1550 
L 2975 1550 
L 2975 1400 
L 2300 1400 
L 2300 575 
z
M 1875 3800 
L 450 1550 
L 1900 1550 
L 1900 3800 
L 1875 3800 
z
" transform="scale(0.015625)"/>
       </defs>
       <use xlink:href="#SimSun-34"/>
       <use xlink:href="#SimSun-30" x="50"/>
      </g>
     </g>
    </g>
    <g id="xtick_4">
     <g id="line2d_4">
      <g>
       <use xlink:href="#mb9dee61412" x="369" y="320.4" style="stroke: #000000; stroke-width: 0.8"/>
      </g>
     </g>
     <g id="text_4">
      <!-- 60 -->
      <g transform="translate(364 334.548437) scale(0.1 -0.1)">
       <defs>
        <path id="SimSun-36" d="M 775 1800 
Q 775 1050 1037 637 
Q 1300 225 1675 225 
Q 2050 225 2250 500 
Q 2450 775 2450 1525 
Q 2450 2025 2237 2300 
Q 2025 2575 1725 2575 
Q 1450 2575 1212 2412 
Q 975 2250 775 1800 
z
M 1750 2825 
Q 2350 2825 2612 2425 
Q 2875 2025 2875 1525 
Q 2875 775 2512 412 
Q 2150 50 1675 50 
Q 1000 50 650 562 
Q 300 1075 300 2050 
Q 300 3200 725 3812 
Q 1150 4425 1875 4425 
Q 2225 4425 2437 4225 
Q 2650 4025 2650 3875 
Q 2650 3725 2587 3650 
Q 2525 3575 2375 3575 
Q 2250 3575 2187 3637 
Q 2125 3700 2125 3825 
Q 2125 3875 2150 3925 
Q 2150 3975 2150 4025 
Q 2150 4125 2075 4187 
Q 2000 4250 1800 4250 
Q 1375 4250 1075 3862 
Q 775 3475 775 2175 
Q 925 2500 1187 2662 
Q 1450 2825 1750 2825 
z
" transform="scale(0.015625)"/>
       </defs>
       <use xlink:href="#SimSun-36"/>
       <use xlink:href="#SimSun-30" x="50"/>
      </g>
     </g>
    </g>
    <g id="xtick_5">
     <g id="line2d_5">
      <g>
       <use xlink:href="#mb9dee61412" x="462" y="320.4" style="stroke: #000000; stroke-width: 0.8"/>
      </g>
     </g>
     <g id="text_5">
      <!-- 80 -->
      <g transform="translate(457 334.548437) scale(0.1 -0.1)">
       <defs>
        <path id="SimSun-38" d="M 625 1125 
Q 625 725 887 475 
Q 1150 225 1550 225 
Q 2025 225 2237 475 
Q 2450 725 2450 1100 
Q 2450 1425 2150 1725 
Q 1850 2025 1250 2275 
Q 950 2075 787 1775 
Q 625 1475 625 1125 
z
M 2825 1175 
Q 2825 700 2475 375 
Q 2125 50 1550 50 
Q 1025 50 650 375 
Q 275 700 275 1125 
Q 275 1550 487 1850 
Q 700 2150 1100 2375 
Q 750 2550 562 2812 
Q 375 3075 375 3400 
Q 375 3825 700 4125 
Q 1025 4425 1600 4425 
Q 2125 4425 2450 4125 
Q 2775 3825 2775 3400 
Q 2775 3100 2587 2837 
Q 2400 2575 2000 2375 
Q 2425 2125 2625 1825 
Q 2825 1525 2825 1175 
z
M 2425 3375 
Q 2425 3725 2225 3987 
Q 2025 4250 1600 4250 
Q 1125 4250 925 4000 
Q 725 3750 725 3475 
Q 725 3200 1012 2937 
Q 1300 2675 1825 2475 
Q 2125 2625 2275 2850 
Q 2425 3075 2425 3375 
z
" transform="scale(0.015625)"/>
       </defs>
       <use xlink:href="#SimSun-38"/>
       <use xlink:href="#SimSun-30" x="50"/>
      </g>
     </g>
    </g>
    <g id="xtick_6">
     <g id="line2d_6">
      <g>
       <use xlink:href="#mb9dee61412" x="555" y="320.4" style="stroke: #000000; stroke-width: 0.8"/>
      </g>
     </g>
     <g id="text_6">
      <!-- 100 -->
      <g transform="translate(547.5 334.548437) scale(0.1 -0.1)">
       <defs>
        <path id="SimSun-31" d="M 1825 4450 
L 1825 650 
Q 1825 450 1950 350 
Q 2075 250 2300 250 
L 2550 250 
L 2550 100 
L 725 100 
L 725 250 
L 950 250 
Q 1200 250 1312 350 
Q 1425 450 1425 650 
L 1425 3675 
Q 1425 3775 1362 3837 
Q 1300 3900 1175 3900 
L 725 3900 
L 725 4050 
L 950 4050 
Q 1250 4050 1437 4150 
Q 1625 4250 1725 4450 
L 1825 4450 
z
" transform="scale(0.015625)"/>
       </defs>
       <use xlink:href="#SimSun-31"/>
       <use xlink:href="#SimSun-30" x="50"/>
       <use xlink:href="#SimSun-30" x="100"/>
      </g>
     </g>
    </g>
    <g id="xtick_7">
     <g id="line2d_7">
      <g>
       <use xlink:href="#mb9dee61412" x="648" y="320.4" style="stroke: #000000; stroke-width: 0.8"/>
      </g>
     </g>
     <g id="text_7">
      <!-- 120 -->
      <g transform="translate(640.5 334.548437) scale(0.1 -0.1)">
       <use xlink:href="#SimSun-31"/>
       <use xlink:href="#SimSun-32" x="50"/>
       <use xlink:href="#SimSun-30" x="100"/>
      </g>
     </g>
    </g>
    <g id="text_8">
     <!-- 响应延时 (us) -->
     <g transform="translate(317 352.3375) scale(0.16 -0.16)">
      <defs>
       <path id="SimSun-54cd" d="M 4350 125 
Q 4800 100 5087 100 
Q 5375 100 5350 475 
L 5350 3900 
L 2800 3900 
L 2800 -375 
L 2475 -525 
Q 2500 250 2500 1912 
Q 2500 3575 2475 4275 
L 2800 4050 
L 3425 4050 
Q 3700 4725 3775 5250 
L 4275 4950 
Q 4150 4875 4012 4712 
Q 3875 4550 3575 4050 
L 5300 4050 
L 5475 4325 
L 5875 4000 
L 5675 3825 
L 5675 250 
Q 5725 -325 5175 -500 
Q 5175 -125 4350 25 
L 4350 125 
z
M 4800 2725 
Q 4800 1625 4825 1075 
L 4475 925 
L 4475 1325 
L 3625 1325 
L 3625 1000 
L 3275 850 
Q 3300 1150 3300 1937 
Q 3300 2725 3275 3175 
L 3625 2950 
L 4450 2950 
L 4625 3200 
L 5000 2900 
L 4800 2725 
z
M 3625 2800 
L 3625 1475 
L 4475 1475 
L 4475 2800 
L 3625 2800 
z
M 2050 3850 
L 2050 2100 
Q 2050 1725 2075 1100 
L 1725 925 
L 1725 1350 
L 925 1350 
L 925 850 
L 575 675 
Q 600 1550 600 2562 
Q 600 3575 575 4300 
L 925 4075 
L 1700 4075 
L 1875 4300 
L 2225 4025 
L 2050 3850 
z
M 925 3925 
L 925 1500 
L 1725 1500 
L 1725 3925 
L 925 3925 
z
" transform="scale(0.015625)"/>
       <path id="SimSun-5e94" d="M 1850 3225 
Q 2650 2125 2750 1850 
Q 2850 1575 2850 1400 
Q 2850 1275 2812 1137 
Q 2775 1000 2637 925 
Q 2500 850 2400 1475 
Q 2275 2075 1775 3175 
L 1850 3225 
z
M 3100 3425 
Q 3650 2675 3862 2287 
Q 4075 1900 4037 1637 
Q 4000 1375 3900 1300 
Q 3800 1225 3775 1225 
Q 3625 1225 3575 1725 
Q 3475 2350 3000 3375 
L 3100 3425 
z
M 1175 75 
L 4075 75 
Q 4600 1400 4800 2087 
Q 5000 2775 5125 3450 
L 5700 3100 
Q 5525 3025 5150 2100 
Q 4750 1175 4250 75 
L 5125 75 
L 5550 500 
L 6125 -75 
L 2000 -75 
Q 1675 -75 1400 -150 
L 1175 75 
z
M 975 4475 
L 1350 4225 
L 5075 4225 
L 5475 4625 
L 6025 4075 
L 1350 4075 
Q 1350 3200 1337 2387 
Q 1325 1575 1100 850 
Q 875 125 325 -575 
L 250 -525 
Q 750 375 875 1225 
Q 1000 2075 1000 2850 
Q 1000 3625 975 4475 
z
M 3175 5225 
Q 3725 4925 3787 4812 
Q 3850 4700 3850 4625 
Q 3850 4525 3787 4412 
Q 3725 4300 3612 4250 
Q 3500 4200 3450 4450 
Q 3400 4700 3100 5175 
L 3175 5225 
z
" transform="scale(0.015625)"/>
       <path id="SimSun-5ef6" d="M 500 4450 
L 1800 4450 
L 2050 4700 
L 2450 4300 
Q 2225 4275 1900 3775 
Q 1575 3250 1250 2750 
L 1975 2750 
L 2150 3000 
L 2525 2675 
L 2325 2525 
Q 2175 1550 1875 750 
Q 2500 250 3112 175 
Q 3725 100 4350 100 
Q 5175 100 6025 175 
L 6025 75 
Q 5525 -25 5525 -350 
Q 3800 -350 3100 -187 
Q 2400 -25 1725 525 
Q 1175 -150 325 -525 
L 275 -450 
Q 1025 0 1500 750 
Q 1175 1175 825 2025 
L 900 2050 
Q 1275 1350 1625 1000 
Q 1925 1775 2000 2600 
L 1200 2600 
L 1050 2425 
L 725 2725 
Q 1025 2925 1362 3462 
Q 1700 4000 1825 4300 
L 1000 4300 
L 700 4250 
L 500 4450 
z
M 2800 4200 
Q 3675 4300 4412 4500 
Q 5150 4700 5350 4850 
L 5775 4400 
Q 5500 4400 5162 4350 
Q 4825 4300 4500 4250 
L 4500 2800 
L 5050 2800 
L 5350 3100 
L 5800 2650 
L 4500 2650 
L 4500 1025 
L 5200 1025 
L 5500 1325 
L 5950 875 
L 3425 875 
L 3225 650 
L 2900 975 
L 3075 1125 
L 3075 2275 
Q 3075 2775 3050 3200 
L 3575 2950 
L 3400 2825 
L 3400 1025 
L 4175 1025 
L 4175 4225 
Q 3575 4150 2825 4100 
L 2800 4200 
z
" transform="scale(0.015625)"/>
       <path id="SimSun-65f6" d="M 4500 3600 
Q 4500 4575 4475 5225 
L 5100 4900 
L 4850 4725 
L 4850 3600 
L 5225 3600 
L 5550 3925 
L 6025 3450 
L 4850 3450 
L 4850 100 
Q 4850 -375 4300 -575 
Q 4275 -200 3475 -25 
L 3475 100 
Q 4150 0 4325 25 
Q 4500 50 4500 325 
L 4500 3450 
L 3200 3450 
Q 2875 3450 2600 3375 
L 2375 3600 
L 4500 3600 
z
M 2875 2825 
Q 3525 2375 3637 2200 
Q 3750 2025 3750 1925 
Q 3750 1800 3637 1637 
Q 3525 1475 3475 1475 
Q 3400 1475 3325 1775 
Q 3200 2225 2800 2750 
L 2875 2825 
z
M 925 4150 
L 925 2650 
L 1950 2650 
L 1950 4150 
L 925 4150 
z
M 925 2500 
L 925 900 
L 1950 900 
L 1950 2500 
L 925 2500 
z
M 2300 2000 
Q 2300 800 2325 450 
L 1950 250 
L 1950 750 
L 925 750 
L 925 225 
L 550 25 
Q 575 825 575 2425 
Q 575 4025 550 4500 
L 950 4300 
L 1900 4300 
L 2100 4550 
L 2500 4225 
L 2300 4050 
L 2300 2000 
z
" transform="scale(0.015625)"/>
       <path id="SimSun-20" d="M 0 0 
Q 0 0 0 0 
z
" transform="scale(0.015625)"/>
       <path id="SimSun-28" d="M 2900 5025 
Q 2325 4425 2037 3737 
Q 1750 3050 1750 2300 
Q 1750 1525 2037 850 
Q 2325 175 2900 -425 
L 2775 -550 
Q 2075 75 1725 787 
Q 1375 1500 1375 2300 
Q 1375 3075 1725 3787 
Q 2075 4500 2775 5150 
L 2900 5025 
z
" transform="scale(0.015625)"/>
       <path id="SimSun-75" d="M 1450 325 
Q 1750 325 1962 475 
Q 2175 625 2275 950 
L 2275 2525 
Q 2275 2625 2225 2687 
Q 2175 2750 2050 2750 
L 1900 2750 
L 1900 2900 
L 2050 2900 
Q 2200 2900 2325 2925 
Q 2450 2950 2575 3050 
L 2625 3050 
L 2625 600 
Q 2625 500 2687 450 
Q 2750 400 2850 400 
L 3000 400 
L 3000 250 
L 2850 250 
Q 2725 250 2600 212 
Q 2475 175 2325 100 
L 2275 100 
L 2275 625 
Q 2150 350 1900 212 
Q 1650 75 1325 75 
Q 925 75 725 300 
Q 525 525 525 1025 
L 525 2525 
Q 525 2625 475 2687 
Q 425 2750 300 2750 
L 150 2750 
L 150 2900 
L 300 2900 
Q 450 2900 575 2925 
Q 700 2950 825 3050 
L 875 3050 
L 875 975 
Q 875 625 1025 475 
Q 1175 325 1450 325 
z
" transform="scale(0.015625)"/>
       <path id="SimSun-73" d="M 625 2175 
Q 625 2550 912 2750 
Q 1200 2950 1600 2950 
Q 1825 2950 2025 2900 
Q 2225 2825 2300 2825 
Q 2375 2825 2425 2850 
Q 2475 2875 2550 2950 
L 2650 2125 
L 2500 2100 
Q 2400 2425 2162 2612 
Q 1925 2800 1625 2800 
Q 1300 2800 1112 2675 
Q 925 2550 925 2325 
Q 925 2125 1012 2012 
Q 1100 1900 1325 1850 
Q 1500 1775 1775 1700 
Q 2025 1600 2250 1500 
Q 2450 1400 2587 1237 
Q 2725 1075 2725 875 
Q 2725 500 2462 287 
Q 2200 75 1700 75 
Q 1375 75 1225 150 
Q 1050 200 950 200 
Q 875 200 787 162 
Q 700 125 600 75 
L 525 1000 
L 675 1025 
Q 750 625 1000 425 
Q 1250 225 1700 225 
Q 2050 225 2237 350 
Q 2425 475 2425 725 
Q 2425 900 2325 1012 
Q 2225 1125 2125 1175 
Q 1875 1275 1575 1400 
Q 1275 1500 1050 1600 
Q 825 1700 725 1850 
Q 625 2000 625 2175 
z
" transform="scale(0.015625)"/>
       <path id="SimSun-29" d="M 275 5025 
L 400 5150 
Q 1100 4500 1450 3787 
Q 1800 3075 1800 2300 
Q 1800 1500 1450 787 
Q 1100 75 400 -550 
L 275 -425 
Q 850 175 1137 850 
Q 1425 1525 1425 2300 
Q 1425 3050 1137 3737 
Q 850 4425 275 5025 
z
" transform="scale(0.015625)"/>
      </defs>
      <use xlink:href="#SimSun-54cd"/>
      <use xlink:href="#SimSun-5e94" x="100"/>
      <use xlink:href="#SimSun-5ef6" x="200"/>
      <use xlink:href="#SimSun-65f6" x="300"/>
      <use xlink:href="#SimSun-20" x="400"/>
      <use xlink:href="#SimSun-28" x="450"/>
      <use xlink:href="#SimSun-75" x="500"/>
      <use xlink:href="#SimSun-73" x="550"/>
      <use xlink:href="#SimSun-29" x="600"/>
     </g>
    </g>
   </g>
   <g id="matplotlib.axis_2">
    <g id="ytick_1">
     <g id="line2d_8">
      <defs>
       <path id="m91b49c1314" d="M 0 0 
L -3.5 0 
" style="stroke: #000000; stroke-width: 0.8"/>
      </defs>
      <g>
       <use xlink:href="#m91b49c1314" x="90" y="320.4" style="stroke: #000000; stroke-width: 0.8"/>
      </g>
     </g>
     <g id="text_9">
      <!-- 0.00 -->
      <g transform="translate(63 323.974219) scale(0.1 -0.1)">
       <defs>
        <path id="SimSun-2e" d="M 800 25 
Q 650 25 537 125 
Q 425 225 425 400 
Q 425 575 537 675 
Q 650 775 800 775 
Q 950 775 1062 662 
Q 1175 550 1175 400 
Q 1175 225 1062 125 
Q 950 25 800 25 
z
" transform="scale(0.015625)"/>
       </defs>
       <use xlink:href="#SimSun-30"/>
       <use xlink:href="#SimSun-2e" x="50"/>
       <use xlink:href="#SimSun-30" x="100"/>
       <use xlink:href="#SimSun-30" x="150"/>
      </g>
     </g>
    </g>
    <g id="ytick_2">
     <g id="line2d_9">
      <g>
       <use xlink:href="#m91b49c1314" x="90" y="279.38232" style="stroke: #000000; stroke-width: 0.8"/>
      </g>
     </g>
     <g id="text_10">
      <!-- 0.01 -->
      <g transform="translate(63 282.956539) scale(0.1 -0.1)">
       <use xlink:href="#SimSun-30"/>
       <use xlink:href="#SimSun-2e" x="50"/>
       <use xlink:href="#SimSun-30" x="100"/>
       <use xlink:href="#SimSun-31" x="150"/>
      </g>
     </g>
    </g>
    <g id="ytick_3">
     <g id="line2d_10">
      <g>
       <use xlink:href="#m91b49c1314" x="90" y="238.364641" style="stroke: #000000; stroke-width: 0.8"/>
      </g>
     </g>
     <g id="text_11">
      <!-- 0.02 -->
      <g transform="translate(63 241.938859) scale(0.1 -0.1)">
       <use xlink:href="#SimSun-30"/>
       <use xlink:href="#SimSun-2e" x="50"/>
       <use xlink:href="#SimSun-30" x="100"/>
       <use xlink:href="#SimSun-32" x="150"/>
      </g>
     </g>
    </g>
    <g id="ytick_4">
     <g id="line2d_11">
      <g>
       <use xlink:href="#m91b49c1314" x="90" y="197.346961" style="stroke: #000000; stroke-width: 0.8"/>
      </g>
     </g>
     <g id="text_12">
      <!-- 0.03 -->
      <g transform="translate(63 200.92118) scale(0.1 -0.1)">
       <defs>
        <path id="SimSun-33" d="M 2800 1250 
Q 2800 775 2450 412 
Q 2100 50 1475 50 
Q 1025 50 700 300 
Q 375 550 375 875 
Q 375 1025 475 1137 
Q 575 1250 675 1250 
Q 825 1250 887 1137 
Q 950 1025 950 950 
Q 950 825 900 750 
Q 850 650 850 575 
Q 850 425 1037 325 
Q 1225 225 1450 225 
Q 1900 225 2125 487 
Q 2350 750 2350 1300 
Q 2350 1750 2112 2025 
Q 1875 2300 1225 2300 
L 1225 2475 
Q 1725 2475 1962 2712 
Q 2200 2950 2200 3375 
Q 2200 3725 2012 3987 
Q 1825 4250 1425 4250 
Q 1250 4250 1050 4162 
Q 850 4075 850 3875 
Q 850 3675 900 3625 
Q 950 3575 950 3500 
Q 950 3375 900 3300 
Q 850 3225 725 3225 
Q 625 3225 537 3300 
Q 450 3375 450 3575 
Q 450 3950 775 4187 
Q 1100 4425 1525 4425 
Q 2025 4425 2325 4112 
Q 2625 3800 2625 3450 
Q 2625 3075 2437 2812 
Q 2250 2550 1850 2425 
Q 2400 2225 2600 1900 
Q 2800 1575 2800 1250 
z
" transform="scale(0.015625)"/>
       </defs>
       <use xlink:href="#SimSun-30"/>
       <use xlink:href="#SimSun-2e" x="50"/>
       <use xlink:href="#SimSun-30" x="100"/>
       <use xlink:href="#SimSun-33" x="150"/>
      </g>
     </g>
    </g>
    <g id="ytick_5">
     <g id="line2d_12">
      <g>
       <use xlink:href="#m91b49c1314" x="90" y="156.329281" style="stroke: #000000; stroke-width: 0.8"/>
      </g>
     </g>
     <g id="text_13">
      <!-- 0.04 -->
      <g transform="translate(63 159.9035) scale(0.1 -0.1)">
       <use xlink:href="#SimSun-30"/>
       <use xlink:href="#SimSun-2e" x="50"/>
       <use xlink:href="#SimSun-30" x="100"/>
       <use xlink:href="#SimSun-34" x="150"/>
      </g>
     </g>
    </g>
    <g id="ytick_6">
     <g id="line2d_13">
      <g>
       <use xlink:href="#m91b49c1314" x="90" y="115.311602" style="stroke: #000000; stroke-width: 0.8"/>
      </g>
     </g>
     <g id="text_14">
      <!-- 0.05 -->
      <g transform="translate(63 118.885821) scale(0.1 -0.1)">
       <defs>
        <path id="SimSun-35" d="M 1725 2850 
Q 2200 2850 2500 2487 
Q 2800 2125 2800 1525 
Q 2800 850 2487 450 
Q 2175 50 1525 50 
Q 1075 50 725 312 
Q 375 575 375 950 
Q 375 1100 462 1212 
Q 550 1325 700 1325 
Q 850 1325 900 1225 
Q 950 1125 950 1050 
Q 950 900 875 825 
Q 800 725 800 625 
Q 800 425 1037 325 
Q 1275 225 1550 225 
Q 1950 225 2162 550 
Q 2375 875 2375 1475 
Q 2375 1975 2187 2287 
Q 2000 2600 1625 2600 
Q 1350 2600 1150 2500 
Q 950 2400 775 2075 
L 550 2100 
L 675 4375 
L 2725 4375 
L 2650 4000 
L 850 4000 
L 750 2350 
Q 1000 2700 1237 2775 
Q 1475 2850 1725 2850 
z
" transform="scale(0.015625)"/>
       </defs>
       <use xlink:href="#SimSun-30"/>
       <use xlink:href="#SimSun-2e" x="50"/>
       <use xlink:href="#SimSun-30" x="100"/>
       <use xlink:href="#SimSun-35" x="150"/>
      </g>
     </g>
    </g>
    <g id="ytick_7">
     <g id="line2d_14">
      <g>
       <use xlink:href="#m91b49c1314" x="90" y="74.293922" style="stroke: #000000; stroke-width: 0.8"/>
      </g>
     </g>
     <g id="text_15">
      <!-- 0.06 -->
      <g transform="translate(63 77.868141) scale(0.1 -0.1)">
       <use xlink:href="#SimSun-30"/>
       <use xlink:href="#SimSun-2e" x="50"/>
       <use xlink:href="#SimSun-30" x="100"/>
       <use xlink:href="#SimSun-36" x="150"/>
      </g>
     </g>
    </g>
    <g id="text_16">
     <!-- 概率密度 -->
     <g transform="translate(56.9375 213.8) rotate(-90) scale(0.16 -0.16)">
      <defs>
       <path id="SimSun-6982" d="M 2700 4500 
L 2700 3450 
L 3375 3450 
L 3375 4500 
L 2700 4500 
z
M 2700 3300 
L 2700 2300 
L 3375 2300 
L 3375 3300 
L 2700 3300 
z
M 2700 725 
L 3425 1200 
Q 3350 1375 3025 1775 
L 3050 1850 
Q 3550 1525 3712 1337 
Q 3875 1150 3875 1000 
Q 3875 875 3800 750 
Q 3725 625 3700 625 
Q 3650 625 3625 725 
Q 3550 900 3475 1100 
Q 2900 600 2575 150 
L 2325 475 
Q 2400 625 2400 950 
L 2400 3475 
Q 2400 3975 2375 4825 
L 2700 4650 
L 3350 4650 
L 3550 4850 
L 3875 4525 
L 3650 4400 
Q 3650 2825 3675 2150 
L 3375 1975 
L 3375 2150 
L 2700 2150 
L 2700 725 
z
M 5025 2400 
L 4950 2075 
L 5350 1850 
L 5175 1675 
L 5175 100 
Q 5175 -125 5350 -125 
L 5525 -125 
Q 5750 -125 5762 162 
Q 5775 450 5775 825 
L 5900 825 
Q 5900 450 5962 225 
Q 6025 0 6150 -75 
Q 6075 -250 5950 -325 
Q 5825 -400 5625 -400 
L 5225 -400 
Q 4875 -400 4875 0 
L 4875 1825 
Q 4350 75 2650 -650 
L 2625 -575 
Q 4275 350 4700 2400 
L 4225 2400 
L 4050 2250 
L 3775 2550 
Q 3925 2625 4012 2975 
Q 4100 3325 4225 4075 
L 4600 3850 
Q 4475 3800 4425 3575 
Q 4375 3325 4200 2550 
L 4725 2550 
Q 4800 3100 4850 4500 
L 4425 4500 
L 4200 4450 
L 4000 4650 
L 5400 4650 
L 5650 4900 
L 6050 4500 
L 5175 4500 
Q 5100 3100 5050 2550 
L 5400 2550 
L 5675 2825 
L 6100 2400 
L 5025 2400 
z
M 1550 775 
Q 1550 425 1575 -450 
L 1225 -625 
Q 1250 850 1250 2400 
Q 925 1525 300 750 
L 250 825 
Q 575 1400 825 2062 
Q 1075 2725 1225 3575 
L 775 3575 
L 550 3525 
L 350 3725 
L 1250 3725 
Q 1250 4400 1225 5275 
L 1750 5000 
L 1550 4850 
L 1550 3725 
L 1675 3725 
L 1925 3975 
L 2325 3575 
L 1550 3575 
L 1550 3000 
Q 2025 2800 2175 2650 
Q 2325 2500 2325 2350 
Q 2325 2250 2262 2100 
Q 2200 1950 2175 1950 
Q 2100 1950 2000 2200 
Q 1850 2550 1550 2850 
L 1550 775 
z
" transform="scale(0.015625)"/>
       <path id="SimSun-7387" d="M 875 3725 
L 925 3800 
Q 1375 3650 1550 3525 
Q 1725 3400 1725 3250 
Q 1725 3175 1662 3025 
Q 1600 2875 1550 2875 
Q 1500 2875 1425 3050 
Q 1275 3325 875 3725 
z
M 550 1850 
Q 875 1925 2000 2575 
L 2050 2500 
Q 1675 2225 1337 1937 
Q 1000 1650 875 1425 
L 550 1850 
z
M 5200 3450 
Q 4800 3150 4275 2800 
L 4225 2875 
Q 4775 3400 5050 3925 
L 5450 3525 
L 5200 3450 
z
M 4325 2500 
L 4350 2575 
Q 5225 2350 5375 2212 
Q 5525 2075 5525 1900 
Q 5525 1775 5487 1662 
Q 5450 1550 5400 1550 
Q 5325 1550 5200 1800 
Q 4975 2150 4325 2500 
z
M 3150 3900 
Q 2500 3300 2300 3150 
Q 2800 3150 3400 3175 
Q 3700 3500 3850 3825 
L 4250 3450 
Q 4050 3400 3450 2825 
Q 2850 2250 2475 1950 
Q 3150 1975 3850 2000 
Q 3750 2175 3550 2450 
L 3600 2500 
Q 4050 2250 4200 2100 
Q 4350 1950 4350 1850 
Q 4350 1775 4250 1625 
Q 4150 1475 4100 1475 
Q 4075 1475 4050 1550 
Q 4000 1700 3900 1900 
Q 3650 1875 3075 1800 
L 3500 1550 
L 3325 1425 
L 3325 975 
L 5325 975 
L 5650 1300 
L 6100 825 
L 3325 825 
Q 3325 -275 3350 -525 
L 2975 -650 
Q 3000 0 3000 825 
L 1125 825 
Q 800 825 525 750 
L 300 975 
L 3000 975 
L 3000 1775 
Q 2450 1700 2200 1525 
L 1950 1950 
Q 2275 1950 2675 2350 
Q 3075 2750 3325 3050 
Q 2400 2950 2150 2775 
L 1950 3175 
Q 2150 3150 2475 3575 
Q 2800 4000 2900 4225 
L 1450 4225 
Q 1125 4225 850 4150 
L 625 4375 
L 3100 4375 
Q 3050 4800 2675 5200 
L 2725 5250 
Q 3225 5050 3337 4912 
Q 3450 4775 3450 4700 
Q 3450 4550 3250 4375 
L 5025 4375 
L 5350 4675 
L 5775 4225 
L 3050 4225 
L 3375 3950 
L 3150 3900 
z
" transform="scale(0.015625)"/>
       <path id="SimSun-5bc6" d="M 1050 4650 
L 1075 4375 
L 3075 4375 
Q 3050 4775 2775 5175 
L 2825 5225 
Q 3325 4975 3375 4862 
Q 3425 4750 3425 4675 
Q 3425 4525 3275 4375 
L 5325 4375 
L 5575 4625 
L 6000 4150 
Q 5650 4200 5100 3575 
L 5025 3625 
L 5350 4225 
L 1075 4225 
Q 1075 3850 1025 3725 
Q 975 3600 850 3562 
Q 725 3525 650 3525 
Q 575 3525 525 3550 
Q 475 3575 475 3600 
Q 475 3675 625 3850 
Q 850 4100 950 4650 
L 1050 4650 
z
M 1500 3275 
Q 1475 2600 1387 2462 
Q 1300 2325 1162 2275 
Q 1025 2225 887 2275 
Q 750 2325 750 2375 
Q 750 2425 925 2575 
Q 1175 2775 1400 3300 
L 1500 3275 
z
M 2050 2700 
Q 2050 3225 2025 3625 
L 2625 3375 
L 2375 3200 
L 2375 2350 
Q 2800 2575 3350 3012 
Q 3900 3450 4325 4000 
L 4700 3550 
L 4450 3500 
Q 3900 3025 3462 2712 
Q 3025 2400 2425 2100 
Q 2400 2050 2800 2050 
L 4025 2050 
Q 4175 2075 4225 2237 
Q 4275 2400 4300 2825 
L 4400 2825 
Q 4400 2500 4437 2325 
Q 4475 2150 4700 2050 
Q 4550 1750 3950 1775 
L 2575 1775 
Q 2400 1775 2262 1775 
Q 2125 1775 2075 1950 
Q 1350 1700 300 1550 
L 275 1625 
Q 1175 1825 2050 2200 
L 2050 2700 
z
M 2600 4050 
L 2650 4100 
Q 3200 3775 3237 3662 
Q 3275 3550 3275 3500 
Q 3275 3350 3175 3237 
Q 3075 3125 3025 3125 
Q 2950 3125 2900 3375 
Q 2825 3725 2600 4050 
z
M 4725 3200 
L 4775 3275 
Q 5350 3000 5525 2837 
Q 5700 2675 5712 2525 
Q 5725 2375 5625 2250 
Q 5525 2125 5475 2125 
Q 5400 2125 5325 2350 
Q 5200 2700 4725 3200 
z
M 2975 -50 
Q 2975 1200 2950 1625 
L 3550 1350 
L 3300 1175 
L 3300 -50 
L 4750 -50 
Q 4750 950 4725 1300 
L 5275 1025 
L 5075 850 
Q 5075 75 5100 -400 
L 4750 -500 
L 4750 -200 
L 1575 -200 
L 1400 -375 
L 1075 -75 
L 1250 50 
Q 1250 850 1225 1275 
L 1800 1025 
L 1575 875 
L 1575 -50 
L 2975 -50 
z
" transform="scale(0.015625)"/>
       <path id="SimSun-5ea6" d="M 2550 2025 
Q 2575 2525 2575 3175 
L 1925 3175 
L 1625 3125 
L 1425 3325 
L 2575 3325 
Q 2575 3700 2550 4150 
L 3100 3875 
L 2900 3750 
L 2900 3325 
L 4300 3325 
Q 4300 3750 4275 4125 
L 4850 3875 
L 4625 3725 
L 4625 3325 
L 5100 3325 
L 5425 3650 
L 5900 3175 
L 4625 3175 
Q 4625 2450 4650 2225 
L 4300 2075 
L 4300 2300 
L 2900 2300 
L 2900 2175 
L 2550 2025 
z
M 4875 1500 
Q 4300 775 3900 425 
Q 4700 -75 6025 -125 
L 6025 -225 
Q 5625 -300 5550 -550 
Q 4375 -325 3675 225 
Q 2475 -450 1075 -625 
L 1050 -525 
Q 2375 -275 3450 450 
Q 2975 925 2575 1625 
L 2325 1625 
L 2100 1575 
L 1900 1775 
L 4525 1775 
L 4750 2000 
L 5125 1625 
L 4875 1500 
z
M 2700 1625 
Q 3175 975 3650 625 
Q 4150 1100 4500 1625 
L 2700 1625 
z
M 2900 3175 
L 2900 2450 
L 4300 2450 
L 4300 3175 
L 2900 3175 
z
M 975 4650 
L 1400 4400 
L 3375 4400 
Q 3350 4550 3262 4725 
Q 3175 4900 2900 5225 
L 2975 5275 
Q 3550 5025 3637 4887 
Q 3725 4750 3725 4725 
Q 3725 4575 3525 4400 
L 5150 4400 
L 5500 4750 
L 6000 4250 
L 1375 4250 
Q 1400 2750 1287 1912 
Q 1175 1075 925 475 
Q 675 -125 300 -625 
L 225 -575 
Q 725 300 862 1250 
Q 1000 2200 1012 3187 
Q 1025 4175 975 4650 
z
" transform="scale(0.015625)"/>
      </defs>
      <use xlink:href="#SimSun-6982"/>
      <use xlink:href="#SimSun-7387" x="100"/>
      <use xlink:href="#SimSun-5bc6" x="200"/>
      <use xlink:href="#SimSun-5ea6" x="300"/>
     </g>
    </g>
   </g>
   <g id="line2d_15">
    <path d="M 90.2232 320.4 
L 99.433938 320.313131 
L 100.919541 320.098628 
L 102.108023 319.718703 
L 102.999385 319.241987 
L 103.890746 318.541706 
L 104.782108 317.56056 
L 105.67347 316.240455 
L 106.564831 314.525315 
L 107.456193 312.363703 
L 108.347555 309.711081 
L 109.536037 305.349923 
L 110.724519 299.996203 
L 111.913002 293.626852 
L 113.398605 284.25687 
L 114.884207 273.410607 
L 116.666931 258.671754 
L 118.746775 239.57223 
L 121.71798 210.057734 
L 127.363271 153.604183 
L 129.740236 132.054773 
L 131.82008 115.054696 
L 133.602803 102.088167 
L 135.385527 90.72375 
L 136.87113 82.522396 
L 138.356732 75.487774 
L 139.842335 69.612575 
L 141.030818 65.732199 
L 142.2193 62.561518 
L 143.407782 60.078214 
L 144.299144 58.651316 
L 145.190506 57.584442 
L 146.081867 56.86475 
L 146.973229 56.47878 
L 147.864591 56.412592 
L 148.755952 56.651883 
L 149.647314 57.18211 
L 150.538676 57.988587 
L 151.430038 59.056579 
L 152.61852 60.861975 
L 153.807002 63.071645 
L 155.292605 66.350646 
L 157.075328 70.958912 
L 158.858052 76.201654 
L 160.937896 82.986937 
L 163.611981 92.544952 
L 166.880307 105.127073 
L 171.931357 125.592155 
L 180.250733 159.270655 
L 184.707541 176.301964 
L 188.570109 190.181476 
L 192.135556 202.171995 
L 195.403882 212.434534 
L 198.672208 221.990197 
L 201.940535 230.845428 
L 205.208861 239.018177 
L 208.180067 245.877646 
L 211.151272 252.21847 
L 214.122478 258.066988 
L 217.093684 263.45104 
L 220.064889 268.39915 
L 223.036095 272.939895 
L 226.007301 277.101418 
L 228.978506 280.911075 
L 232.246833 284.726657 
L 235.515159 288.18159 
L 238.783485 291.307207 
L 242.051812 294.132788 
L 245.617258 296.904952 
L 249.182705 299.3849 
L 252.748152 301.602335 
L 256.61072 303.739595 
L 260.473287 305.631449 
L 264.632975 307.426188 
L 269.089783 309.104008 
L 273.843713 310.650849 
L 278.894762 312.058153 
L 284.242933 313.322397 
L 290.185344 314.498157 
L 296.721997 315.561267 
L 304.150011 316.53249 
L 312.469387 317.384168 
L 321.977245 318.123694 
L 332.970706 318.749121 
L 346.341132 319.276397 
L 362.979884 319.697505 
L 384.966806 320.016441 
L 387.04665 320.037454 
L 387.04665 320.037454 
" clip-path="url(#p9fc4190f57)" style="fill: none; stroke: #000000; stroke-width: 2; stroke-linecap: square"/>
   </g>
   <g id="patch_33">
    <path d="M 90 320.4 
L 90 43.2 
" style="fill: none; stroke: #000000; stroke-width: 0.8; stroke-linejoin: miter; stroke-linecap: square"/>
   </g>
   <g id="patch_34">
    <path d="M 648 320.4 
L 648 43.2 
" style="fill: none; stroke: #000000; stroke-width: 0.8; stroke-linejoin: miter; stroke-linecap: square"/>
   </g>
   <g id="patch_35">
    <path d="M 90 320.4 
L 648 320.4 
" style="fill: none; stroke: #000000; stroke-width: 0.8; stroke-linejoin: miter; stroke-linecap: square"/>
   </g>
   <g id="patch_36">
    <path d="M 90 43.2 
L 648 43.2 
" style="fill: none; stroke: #000000; stroke-width: 0.8; stroke-linejoin: miter; stroke-linecap: square"/>
   </g>
   <g id="text_17">
    <!-- Xenomai 系统100% CPU负载下延时直方图与对数正态分布模型拟合 -->
    <g transform="translate(137 19.5375) scale(0.16 -0.16)">
     <defs>
      <path id="SimSun-58" d="M 1750 2400 
L 2625 525 
Q 2700 375 2787 312 
Q 2875 250 2975 250 
L 3050 250 
L 3050 100 
L 1975 100 
L 1975 250 
L 2075 250 
Q 2200 250 2225 287 
Q 2250 325 2250 375 
Q 2250 425 2225 475 
L 1550 1950 
L 975 750 
Q 925 625 900 550 
Q 850 450 850 425 
Q 850 325 912 287 
Q 975 250 1075 250 
L 1125 250 
L 1125 100 
L 175 100 
L 175 250 
L 275 250 
Q 400 250 500 325 
Q 600 400 650 500 
L 1450 2200 
L 600 4050 
Q 575 4125 512 4175 
Q 450 4225 350 4225 
L 250 4225 
L 250 4375 
L 1275 4375 
L 1275 4225 
L 1200 4225 
Q 1050 4225 1025 4150 
Q 1000 4075 1050 3925 
L 1650 2600 
L 2250 3875 
Q 2325 4050 2300 4137 
Q 2275 4225 2125 4225 
L 1975 4225 
L 1975 4375 
L 2950 4375 
L 2950 4225 
L 2800 4225 
Q 2750 4225 2675 4175 
Q 2600 4125 2525 4025 
L 1750 2400 
z
M 525 250 
L 525 250 
z
M 750 250 
L 750 250 
z
M 2625 4225 
L 2625 4225 
z
M 2325 4225 
L 2325 4225 
z
M 2325 250 
L 2325 250 
z
M 2750 250 
L 2750 250 
z
M 925 4225 
L 925 4225 
z
M 525 4225 
L 525 4225 
z
" transform="scale(0.015625)"/>
      <path id="SimSun-65" d="M 2400 1650 
Q 2425 2200 2212 2487 
Q 2000 2775 1650 2775 
Q 1275 2775 1037 2475 
Q 800 2175 800 1650 
L 2400 1650 
z
M 800 1500 
Q 800 825 1062 537 
Q 1325 250 1750 250 
Q 2075 250 2300 437 
Q 2525 625 2625 900 
L 2750 850 
Q 2675 575 2412 312 
Q 2150 50 1700 50 
Q 1125 50 762 425 
Q 400 800 400 1500 
Q 400 2125 762 2537 
Q 1125 2950 1650 2950 
Q 2125 2950 2475 2625 
Q 2825 2300 2825 1500 
L 800 1500 
z
" transform="scale(0.015625)"/>
      <path id="SimSun-6e" d="M 200 100 
L 200 250 
L 325 250 
Q 450 250 500 300 
Q 550 350 550 450 
L 550 2600 
Q 550 2675 525 2712 
Q 500 2750 425 2750 
L 225 2750 
L 225 2900 
L 400 2900 
Q 525 2900 637 2925 
Q 750 2950 850 3025 
L 900 3025 
L 900 2450 
Q 1125 2700 1350 2825 
Q 1575 2950 1825 2950 
Q 2250 2950 2450 2725 
Q 2650 2500 2650 2050 
L 2650 450 
Q 2650 350 2712 300 
Q 2775 250 2875 250 
L 3000 250 
L 3000 100 
L 1950 100 
L 1950 250 
L 2075 250 
Q 2200 250 2250 300 
Q 2300 350 2300 450 
L 2300 2125 
Q 2300 2425 2175 2587 
Q 2050 2750 1800 2750 
Q 1575 2750 1337 2600 
Q 1100 2450 900 2175 
L 900 450 
Q 900 350 962 300 
Q 1025 250 1125 250 
L 1250 250 
L 1250 100 
L 200 100 
z
" transform="scale(0.015625)"/>
      <path id="SimSun-6f" d="M 2900 1500 
Q 2900 875 2525 462 
Q 2150 50 1600 50 
Q 1025 50 662 475 
Q 300 900 300 1500 
Q 300 2050 662 2500 
Q 1025 2950 1600 2950 
Q 2200 2950 2550 2500 
Q 2900 2050 2900 1500 
z
M 700 1475 
Q 700 825 962 512 
Q 1225 200 1600 200 
Q 2025 200 2262 537 
Q 2500 875 2500 1475 
Q 2500 2125 2237 2462 
Q 1975 2800 1600 2800 
Q 1250 2800 975 2462 
Q 700 2125 700 1475 
z
" transform="scale(0.015625)"/>
      <path id="SimSun-6d" d="M 175 2900 
Q 300 2900 425 2925 
Q 550 2950 625 3000 
L 675 3000 
L 675 2575 
Q 800 2775 950 2862 
Q 1100 2950 1275 2950 
Q 1500 2950 1625 2862 
Q 1750 2775 1775 2575 
Q 1900 2775 2062 2862 
Q 2225 2950 2400 2950 
Q 2700 2950 2812 2775 
Q 2925 2600 2925 2325 
L 2925 425 
Q 2925 325 2975 287 
Q 3025 250 3125 250 
L 3175 250 
L 3175 100 
L 2325 100 
L 2325 250 
L 2375 250 
Q 2475 250 2525 287 
Q 2575 325 2575 425 
L 2575 2300 
Q 2575 2575 2512 2662 
Q 2450 2750 2325 2750 
Q 2150 2750 2012 2625 
Q 1875 2500 1800 2275 
L 1800 425 
Q 1800 325 1850 287 
Q 1900 250 2000 250 
L 2050 250 
L 2050 100 
L 1200 100 
L 1200 250 
L 1250 250 
Q 1350 250 1400 287 
Q 1450 325 1450 425 
L 1450 2300 
Q 1450 2525 1400 2637 
Q 1350 2750 1200 2750 
Q 1025 2750 887 2625 
Q 750 2500 675 2250 
L 675 425 
Q 675 325 725 287 
Q 775 250 875 250 
L 925 250 
L 925 100 
L 75 100 
L 75 250 
L 125 250 
Q 225 250 275 287 
Q 325 325 325 425 
L 325 2600 
Q 325 2675 300 2712 
Q 275 2750 200 2750 
L 100 2750 
L 100 2900 
L 175 2900 
z
" transform="scale(0.015625)"/>
      <path id="SimSun-61" d="M 1225 75 
Q 775 75 525 287 
Q 275 500 275 775 
Q 275 1225 662 1512 
Q 1050 1800 2200 1925 
L 2200 2225 
Q 2200 2475 2087 2637 
Q 1975 2800 1575 2800 
Q 1150 2800 975 2662 
Q 800 2525 850 2375 
Q 875 2325 875 2275 
Q 875 2225 837 2150 
Q 800 2075 650 2075 
Q 550 2075 487 2137 
Q 425 2200 425 2325 
Q 425 2550 750 2750 
Q 1075 2950 1550 2950 
Q 2050 2950 2300 2762 
Q 2550 2575 2550 2225 
L 2550 575 
Q 2550 375 2587 337 
Q 2625 300 2725 300 
Q 2850 300 2900 412 
Q 2950 525 2950 725 
L 3075 725 
Q 3075 375 2950 237 
Q 2825 100 2625 100 
Q 2450 100 2350 175 
Q 2250 250 2200 425 
Q 1950 250 1737 162 
Q 1525 75 1225 75 
z
M 700 850 
Q 700 625 837 437 
Q 975 250 1275 250 
Q 1500 250 1725 337 
Q 1950 425 2200 600 
L 2200 1775 
Q 1350 1675 1025 1437 
Q 700 1200 700 850 
z
" transform="scale(0.015625)"/>
      <path id="SimSun-69" d="M 1425 2525 
Q 1425 2625 1375 2687 
Q 1325 2750 1200 2750 
L 675 2750 
L 675 2900 
L 925 2900 
Q 1150 2900 1350 2937 
Q 1550 2975 1725 3075 
L 1775 3075 
L 1775 450 
Q 1775 350 1837 300 
Q 1900 250 2000 250 
L 2525 250 
L 2525 100 
L 675 100 
L 675 250 
L 1200 250 
Q 1325 250 1375 300 
Q 1425 350 1425 450 
L 1425 2525 
z
M 1725 3025 
L 1725 3025 
z
M 1625 4425 
Q 1750 4425 1850 4337 
Q 1950 4250 1950 4125 
Q 1950 4000 1850 3900 
Q 1750 3800 1625 3800 
Q 1500 3800 1400 3900 
Q 1300 4000 1300 4125 
Q 1300 4250 1400 4337 
Q 1500 4425 1625 4425 
z
" transform="scale(0.015625)"/>
      <path id="SimSun-7cfb" d="M 4975 1950 
L 3600 1850 
L 3600 200 
Q 3650 -400 3025 -575 
Q 3025 -175 2250 0 
L 2250 100 
Q 2900 25 3087 25 
Q 3275 25 3250 375 
L 3250 1800 
Q 2550 1750 2112 1662 
Q 1675 1575 1425 1475 
L 1175 1950 
Q 1450 1975 2037 2250 
Q 2625 2525 3675 3175 
Q 2675 3075 2275 2987 
Q 1875 2900 1625 2775 
L 1375 3275 
Q 1725 3300 2237 3687 
Q 2750 4075 3075 4550 
Q 1600 4450 1025 4450 
L 1025 4550 
Q 2525 4675 3475 4837 
Q 4425 5000 5075 5250 
L 5450 4775 
Q 5075 4800 4437 4725 
Q 3800 4650 3175 4575 
L 3675 4325 
Q 3350 4275 2800 3825 
Q 2225 3375 1925 3250 
L 3900 3325 
Q 4375 3650 4625 3975 
L 5100 3575 
Q 4825 3550 4475 3350 
Q 4100 3125 3212 2625 
Q 2325 2125 1900 1925 
L 4875 2075 
Q 4500 2450 4250 2625 
L 4300 2700 
Q 4975 2450 5287 2262 
Q 5600 2075 5612 1862 
Q 5625 1650 5512 1475 
Q 5400 1300 5287 1500 
Q 5175 1700 4975 1950 
z
M 4000 1300 
Q 5175 800 5462 600 
Q 5750 400 5775 162 
Q 5800 -75 5712 -200 
Q 5625 -325 5600 -325 
Q 5475 -325 5325 -25 
Q 5075 425 3950 1225 
L 4000 1300 
z
M 2250 1400 
L 2700 950 
Q 2500 950 1875 475 
Q 1250 -25 425 -375 
L 375 -300 
Q 925 25 1437 462 
Q 1950 900 2250 1400 
z
" transform="scale(0.015625)"/>
      <path id="SimSun-7edf" d="M 3675 5150 
L 3725 5225 
Q 4350 4925 4425 4737 
Q 4500 4550 4375 4387 
Q 4250 4225 4200 4225 
Q 4125 4225 4075 4450 
Q 3975 4800 3675 5150 
z
M 2675 2525 
Q 2950 2600 3337 3100 
Q 3725 3600 3900 4050 
L 3350 4050 
Q 3025 4050 2750 3975 
L 2525 4200 
L 5225 4200 
L 5575 4550 
L 6000 4050 
L 4025 4050 
L 4400 3750 
Q 4150 3675 3875 3400 
Q 3600 3125 3100 2525 
L 5175 2625 
Q 4900 2950 4550 3275 
L 4600 3350 
Q 5025 3150 5362 2950 
Q 5700 2750 5737 2650 
Q 5775 2550 5775 2450 
Q 5775 2300 5712 2175 
Q 5650 2050 5600 2050 
Q 5575 2050 5525 2150 
Q 5425 2300 5275 2500 
Q 4525 2425 3862 2337 
Q 3200 2250 2900 2050 
L 2675 2525 
z
M 3500 2275 
L 3875 2350 
L 3850 1775 
Q 3775 550 3325 112 
Q 2875 -325 1950 -600 
L 1925 -525 
Q 2625 -175 2950 150 
Q 3275 475 3387 962 
Q 3500 1450 3500 2275 
z
M 4475 2450 
L 4800 2500 
L 4800 1750 
L 4800 175 
Q 4775 -150 5175 -125 
L 5375 -125 
Q 5625 -125 5650 87 
Q 5675 300 5700 825 
L 5825 825 
Q 5825 425 5875 187 
Q 5925 -50 6100 -75 
Q 5975 -425 5600 -425 
L 4975 -425 
Q 4475 -450 4475 25 
L 4475 2450 
z
M 425 500 
Q 675 525 1212 637 
Q 1750 750 2700 975 
L 2725 875 
Q 2200 700 1550 462 
Q 900 225 675 -25 
L 425 500 
z
M 1000 1825 
Q 1275 1850 2625 2025 
L 2650 1925 
Q 2050 1800 1550 1650 
Q 1050 1500 800 1300 
L 500 1825 
Q 725 1875 1125 2312 
Q 1525 2750 1825 3175 
Q 1450 3100 1175 3037 
Q 900 2975 650 2800 
L 400 3225 
Q 675 3300 1050 3912 
Q 1425 4525 1650 5225 
L 2125 4900 
Q 1925 4775 1675 4400 
Q 1425 4000 825 3225 
Q 1475 3275 1900 3300 
Q 2100 3575 2300 4025 
L 2750 3675 
Q 2525 3575 2100 3050 
Q 1650 2525 1000 1825 
z
" transform="scale(0.015625)"/>
      <path id="SimSun-25" d="M 750 4250 
Q 600 4250 500 4050 
Q 400 3850 400 3300 
Q 400 2675 512 2487 
Q 625 2300 750 2300 
Q 925 2300 1012 2525 
Q 1100 2750 1100 3300 
Q 1100 3750 1037 4000 
Q 975 4250 750 4250 
z
M 1425 3275 
Q 1425 2825 1275 2487 
Q 1125 2150 750 2150 
Q 450 2150 262 2450 
Q 75 2750 75 3275 
Q 75 3825 275 4125 
Q 475 4425 750 4425 
Q 1050 4425 1237 4112 
Q 1425 3800 1425 3275 
z
M 2725 1200 
Q 2725 1625 2650 1900 
Q 2575 2175 2375 2175 
Q 2225 2175 2125 1937 
Q 2025 1700 2025 1200 
Q 2025 575 2137 400 
Q 2250 225 2375 225 
Q 2550 225 2637 437 
Q 2725 650 2725 1200 
z
M 3050 1175 
Q 3050 675 2875 362 
Q 2700 50 2375 50 
Q 2100 50 1900 362 
Q 1700 675 1700 1175 
Q 1700 1725 1900 2037 
Q 2100 2350 2375 2350 
Q 2675 2350 2862 2025 
Q 3050 1700 3050 1175 
z
M 2525 4350 
L 725 50 
L 575 125 
L 2350 4425 
L 2525 4350 
z
" transform="scale(0.015625)"/>
      <path id="SimSun-43" d="M 1725 50 
Q 1025 50 612 575 
Q 200 1100 200 2225 
Q 200 3175 637 3800 
Q 1075 4425 1825 4425 
Q 2000 4425 2175 4375 
Q 2350 4300 2475 4300 
Q 2575 4300 2637 4325 
Q 2700 4350 2750 4425 
L 2975 3325 
L 2825 3275 
Q 2675 3750 2425 4000 
Q 2175 4250 1775 4250 
Q 1250 4250 962 3675 
Q 675 3100 675 2250 
Q 675 1325 925 800 
Q 1175 275 1750 275 
Q 2150 275 2437 562 
Q 2725 850 2825 1325 
L 2975 1250 
Q 2850 725 2512 387 
Q 2175 50 1725 50 
z
" transform="scale(0.015625)"/>
      <path id="SimSun-50" d="M 950 2100 
L 950 450 
Q 950 350 1012 300 
Q 1075 250 1175 250 
L 1350 250 
L 1350 100 
L 150 100 
L 150 250 
L 325 250 
Q 450 250 500 300 
Q 550 350 550 450 
L 550 4025 
Q 550 4125 500 4175 
Q 450 4225 325 4225 
L 175 4225 
L 175 4375 
L 1650 4375 
Q 2275 4375 2612 4062 
Q 2950 3750 2950 3275 
Q 2950 2700 2587 2400 
Q 2225 2100 1725 2100 
L 950 2100 
z
M 1575 2250 
Q 1950 2250 2237 2475 
Q 2525 2700 2525 3250 
Q 2525 3750 2287 3987 
Q 2050 4225 1525 4225 
L 1175 4225 
Q 1075 4225 1012 4175 
Q 950 4125 950 4025 
L 950 2250 
L 1575 2250 
z
" transform="scale(0.015625)"/>
      <path id="SimSun-55" d="M 1625 250 
Q 2000 250 2262 500 
Q 2525 750 2525 1125 
L 2525 4025 
Q 2525 4125 2475 4175 
Q 2425 4225 2300 4225 
L 2150 4225 
L 2150 4375 
L 3050 4375 
L 3050 4225 
L 2900 4225 
Q 2800 4225 2737 4175 
Q 2675 4125 2675 4025 
L 2675 1125 
Q 2675 625 2337 337 
Q 2000 50 1575 50 
Q 1125 50 787 300 
Q 450 550 450 1100 
L 450 4025 
Q 450 4125 400 4175 
Q 350 4225 225 4225 
L 100 4225 
L 100 4375 
L 1200 4375 
L 1200 4225 
L 1075 4225 
Q 975 4225 912 4175 
Q 850 4125 850 4025 
L 850 1100 
Q 850 600 1062 425 
Q 1275 250 1625 250 
z
" transform="scale(0.015625)"/>
      <path id="SimSun-8d1f" d="M 1725 675 
Q 1750 1375 1750 2112 
Q 1750 2850 1725 3500 
Q 1275 3050 550 2600 
L 500 2675 
Q 1300 3300 1812 4050 
Q 2325 4800 2500 5250 
L 3000 4900 
L 2750 4800 
L 2525 4500 
L 3975 4500 
L 4225 4775 
L 4650 4350 
Q 4425 4300 4225 4100 
Q 4025 3900 3475 3300 
L 4700 3300 
L 4950 3550 
L 5300 3200 
L 5075 3050 
Q 5075 1525 5100 1075 
L 4725 900 
L 4725 3150 
L 2100 3150 
L 2100 850 
L 1725 675 
z
M 3325 3300 
L 4000 4350 
L 2475 4350 
Q 2075 3875 1700 3475 
L 2075 3300 
L 3325 3300 
z
M 3575 2225 
Q 3525 700 2762 175 
Q 2000 -350 525 -650 
L 525 -550 
Q 2125 -75 2600 425 
Q 3075 925 3137 1600 
Q 3200 2275 3200 2725 
L 3775 2425 
L 3575 2225 
z
M 3675 675 
L 3700 775 
Q 4450 600 4937 437 
Q 5425 275 5587 87 
Q 5750 -100 5750 -225 
Q 5750 -275 5712 -375 
Q 5675 -475 5625 -475 
Q 5525 -475 5200 -175 
Q 4775 250 3675 675 
z
" transform="scale(0.015625)"/>
      <path id="SimSun-8f7d" d="M 1850 5200 
L 2375 5000 
L 2200 4825 
L 2200 4325 
L 2675 4325 
L 2975 4600 
L 3400 4175 
L 2200 4175 
L 2200 3525 
L 3700 3525 
Q 3675 4525 3650 5200 
L 4200 4950 
L 4000 4775 
Q 4000 3950 4025 3525 
L 5250 3525 
L 5625 3850 
L 6100 3375 
L 4050 3375 
Q 4125 2300 4425 1400 
Q 4925 2200 5175 3075 
L 5650 2750 
L 5450 2575 
Q 5075 1775 4575 1050 
Q 4950 350 5650 -50 
L 5875 1050 
L 5975 1025 
Q 5925 350 5950 25 
Q 5975 -300 6075 -500 
Q 6125 -625 6025 -625 
Q 5975 -625 5775 -562 
Q 5575 -500 5125 -150 
Q 4675 200 4350 775 
Q 3575 -125 2625 -600 
L 2575 -525 
Q 3575 175 4175 1075 
Q 3825 1950 3725 3375 
L 1100 3375 
Q 775 3375 500 3300 
L 275 3525 
L 1875 3525 
L 1875 4175 
L 1525 4175 
Q 1200 4175 925 4100 
L 700 4325 
L 1875 4325 
Q 1875 4800 1850 5200 
z
M 4500 4850 
Q 5000 4650 5212 4512 
Q 5425 4375 5400 4187 
Q 5375 4000 5300 3925 
Q 5225 3850 5200 3850 
Q 5125 3850 5025 4050 
Q 4900 4325 4450 4775 
L 4500 4850 
z
M 500 525 
Q 850 550 1975 725 
L 1975 1400 
L 1150 1400 
L 975 1250 
L 700 1575 
Q 900 1575 1350 2450 
L 1150 2450 
Q 850 2450 575 2375 
L 350 2600 
L 1425 2600 
Q 1625 3025 1700 3300 
L 2150 3025 
L 1975 2950 
Q 1900 2850 1775 2600 
L 2700 2600 
L 3025 2900 
L 3425 2450 
L 1700 2450 
L 1175 1550 
L 1975 1550 
Q 1975 1925 1950 2300 
L 2450 2075 
L 2300 1900 
L 2300 1550 
L 2800 1550 
L 3075 1850 
L 3475 1400 
L 2300 1400 
L 2300 775 
L 3400 925 
L 3425 850 
L 2300 575 
Q 2300 -50 2325 -400 
L 1950 -550 
Q 1975 225 1975 500 
Q 850 275 725 100 
L 500 525 
z
" transform="scale(0.015625)"/>
      <path id="SimSun-4e0b" d="M 450 4575 
L 5075 4575 
L 5450 4950 
L 5975 4425 
L 3250 4425 
L 3250 3125 
Q 4750 2675 4987 2412 
Q 5225 2150 5225 1950 
Q 5225 1875 5162 1737 
Q 5100 1600 5050 1600 
Q 4950 1600 4700 1925 
Q 4350 2400 3250 3000 
L 3250 450 
Q 3250 -75 3275 -425 
L 2850 -600 
Q 2875 325 2875 675 
L 2875 4425 
L 1275 4425 
Q 950 4425 675 4350 
L 450 4575 
z
" transform="scale(0.015625)"/>
      <path id="SimSun-76f4" d="M 1900 3425 
L 1900 2725 
L 4500 2725 
L 4500 3425 
L 1900 3425 
z
M 1900 2575 
L 1900 1825 
L 4500 1825 
L 4500 2575 
L 1900 2575 
z
M 1900 1675 
L 1900 900 
L 4500 900 
L 4500 1675 
L 1900 1675 
z
M 1900 750 
L 1900 -50 
L 4500 -50 
L 4500 750 
L 1900 750 
z
M 625 4375 
L 3000 4375 
Q 3050 4875 3075 5225 
L 3650 4925 
L 3425 4800 
L 3350 4375 
L 4975 4375 
L 5325 4750 
L 5775 4225 
L 3325 4225 
L 3200 3575 
L 4475 3575 
L 4650 3850 
L 5050 3550 
L 4850 3375 
L 4850 -50 
L 5225 -50 
L 5625 325 
L 6100 -200 
L 1100 -200 
Q 775 -175 500 -250 
L 300 -50 
L 1550 -50 
Q 1550 3150 1525 3825 
L 1900 3575 
L 2875 3575 
L 2975 4225 
L 1450 4225 
Q 1125 4225 850 4150 
L 625 4375 
z
" transform="scale(0.015625)"/>
      <path id="SimSun-65b9" d="M 275 3925 
L 5250 3925 
L 5625 4300 
L 6150 3775 
L 3075 3775 
Q 3050 3300 2950 2675 
L 4575 2675 
L 4825 2925 
L 5225 2550 
L 4975 2400 
Q 4725 475 4625 125 
Q 4525 -225 4312 -362 
Q 4100 -500 3725 -600 
Q 3625 -200 2900 100 
L 2925 200 
Q 3600 0 3812 -12 
Q 4025 -25 4137 75 
Q 4250 175 4350 712 
Q 4450 1250 4600 2525 
L 2925 2525 
Q 2500 350 475 -575 
L 425 -475 
Q 2675 800 2675 3775 
L 1100 3775 
Q 775 3775 500 3700 
L 275 3925 
z
M 2675 5150 
Q 3325 4900 3437 4725 
Q 3550 4550 3550 4450 
Q 3550 4350 3450 4212 
Q 3350 4075 3325 4075 
Q 3225 4075 3125 4350 
Q 2975 4725 2625 5075 
L 2675 5150 
z
" transform="scale(0.015625)"/>
      <path id="SimSun-56fe" d="M 5675 4700 
L 5675 550 
Q 5675 50 5700 -350 
L 5325 -550 
L 5325 -50 
L 1250 -50 
L 1250 -450 
L 875 -600 
Q 900 -100 900 425 
L 900 4200 
Q 900 4625 875 5150 
L 1250 4925 
L 5275 4925 
L 5450 5175 
L 5850 4850 
L 5675 4700 
z
M 1250 4775 
L 1250 1700 
Q 2425 2200 3075 2825 
Q 2750 3275 2500 3850 
Q 2100 3225 1650 2800 
L 1575 2850 
Q 1975 3375 2250 3937 
Q 2525 4500 2575 4775 
L 1250 4775 
z
M 1250 100 
L 5325 100 
L 5325 4775 
L 2625 4775 
L 3050 4550 
L 2900 4475 
Q 2750 4250 2675 4125 
L 4000 4125 
L 4175 4350 
L 4550 4000 
L 4350 3875 
Q 3925 3275 3475 2775 
Q 4250 2200 5250 2100 
L 5250 2000 
Q 4875 1975 4775 1700 
Q 3900 2025 3250 2600 
Q 2375 1900 1250 1575 
L 1250 100 
z
M 2600 3975 
Q 2950 3350 3275 3000 
Q 3625 3400 3975 3975 
L 2600 3975 
z
M 2750 2050 
Q 3350 1925 3600 1825 
Q 3850 1725 3825 1487 
Q 3800 1250 3725 1250 
Q 3650 1250 3550 1375 
Q 3300 1625 2725 1975 
L 2750 2050 
z
M 2275 1150 
Q 3425 1025 3787 912 
Q 4150 800 4175 525 
Q 4200 250 4075 250 
Q 4000 250 3825 400 
Q 3450 700 2275 1050 
L 2275 1150 
z
" transform="scale(0.015625)"/>
      <path id="SimSun-4e0e" d="M 375 1250 
L 3750 1250 
L 4075 1575 
L 4550 1100 
L 1175 1100 
Q 875 1100 600 1025 
L 375 1250 
z
M 1700 2600 
Q 1800 4125 1812 4450 
Q 1825 4775 1825 5200 
L 2400 4925 
L 2200 4775 
L 2150 3850 
L 5075 3850 
L 5400 4175 
L 5875 3700 
L 2150 3700 
L 2075 2525 
L 5025 2525 
L 5225 2825 
L 5675 2500 
L 5450 2300 
Q 5400 1375 5300 687 
Q 5200 0 4937 -237 
Q 4675 -475 4250 -575 
Q 4275 -250 3425 0 
L 3450 125 
Q 4000 0 4400 0 
Q 4800 0 4925 737 
Q 5050 1475 5075 2375 
L 2100 2375 
L 1900 2125 
L 1500 2425 
L 1700 2600 
z
" transform="scale(0.015625)"/>
      <path id="SimSun-5bf9" d="M 400 4250 
L 2375 4250 
L 2575 4500 
L 3000 4150 
L 2750 3950 
Q 2400 2850 2075 2100 
Q 2575 1375 2675 1062 
Q 2775 750 2762 537 
Q 2750 325 2662 237 
Q 2575 150 2550 150 
Q 2450 150 2375 575 
Q 2250 1075 1925 1800 
Q 1675 1350 1275 875 
Q 875 400 250 -100 
L 225 25 
Q 675 450 1087 1037 
Q 1500 1625 1725 2100 
Q 1000 3125 675 3550 
L 750 3625 
Q 1300 3025 1850 2400 
Q 2100 3050 2375 4100 
L 1225 4100 
Q 900 4100 625 4025 
L 400 4250 
z
M 3600 125 
Q 4375 0 4537 25 
Q 4700 50 4700 225 
L 4700 3350 
L 3525 3350 
Q 3200 3350 2925 3275 
L 2700 3500 
L 4700 3500 
L 4700 4350 
Q 4700 4800 4675 5125 
L 5275 4825 
L 5050 4625 
L 5050 3500 
L 5325 3500 
L 5650 3825 
L 6125 3350 
L 5050 3350 
L 5050 50 
Q 5050 -375 4500 -600 
Q 4500 -300 3600 0 
L 3600 125 
z
M 3100 2775 
L 3175 2825 
Q 3700 2400 3812 2175 
Q 3925 1950 3925 1800 
Q 3925 1625 3800 1462 
Q 3675 1300 3650 1300 
Q 3550 1300 3525 1650 
Q 3450 2125 3100 2775 
z
" transform="scale(0.015625)"/>
      <path id="SimSun-6570" d="M 1875 1525 
Q 1675 1200 1500 900 
Q 1825 825 2275 725 
Q 2500 975 2725 1525 
L 1875 1525 
z
M 850 4900 
Q 1325 4600 1425 4450 
Q 1525 4300 1525 4225 
Q 1525 4100 1437 3975 
Q 1350 3850 1300 3850 
Q 1225 3850 1150 4100 
Q 1050 4450 775 4850 
L 850 4900 
z
M 3000 4975 
L 3450 4675 
Q 3250 4625 3100 4425 
Q 2925 4225 2525 3825 
L 2450 3875 
Q 2925 4625 3000 4975 
z
M 1875 5250 
L 2425 5000 
L 2225 4825 
L 2225 3675 
L 2850 3675 
L 3125 3950 
L 3550 3525 
L 2225 3525 
L 2225 3300 
Q 2800 3175 2937 3062 
Q 3075 2950 3075 2775 
Q 3075 2700 3050 2587 
Q 3025 2475 2975 2475 
Q 2925 2475 2800 2650 
Q 2600 2925 2225 3175 
L 2225 2400 
L 1925 2200 
L 2275 2050 
Q 2150 2000 1950 1675 
L 2725 1675 
L 2900 1900 
L 3275 1575 
L 3050 1450 
Q 2800 875 2600 650 
Q 3000 550 3137 437 
Q 3275 325 3275 150 
Q 3275 -25 3200 -25 
Q 3125 -25 3025 75 
Q 2750 275 2400 425 
Q 1525 -275 325 -500 
L 300 -425 
Q 1450 -50 2100 550 
Q 1600 725 1125 800 
Q 1225 950 1525 1525 
L 1200 1525 
Q 875 1525 600 1450 
L 375 1675 
L 1575 1675 
Q 1675 1925 1775 2275 
L 1900 2225 
L 1900 3250 
Q 1225 2475 350 2050 
L 300 2125 
Q 1225 2775 1700 3525 
L 1250 3525 
Q 925 3525 650 3450 
L 425 3675 
L 1900 3675 
Q 1900 4575 1875 5250 
z
M 3925 3525 
Q 4050 2075 4525 1100 
Q 4925 1950 5025 3525 
L 3925 3525 
z
M 4050 5250 
L 4625 4925 
Q 4425 4850 4325 4625 
Q 4225 4400 3950 3675 
L 5375 3675 
L 5675 3975 
L 6125 3525 
L 5400 3525 
Q 5250 1675 4750 775 
Q 5325 75 6100 -100 
L 6100 -200 
Q 5625 -275 5600 -500 
Q 4950 -50 4525 525 
Q 3700 -275 2550 -650 
L 2500 -575 
Q 3650 -50 4325 800 
Q 3850 1975 3825 3375 
Q 3575 2725 3100 2150 
L 3025 2200 
Q 3625 3200 4050 5250 
z
" transform="scale(0.015625)"/>
      <path id="SimSun-6b63" d="M 1600 2725 
Q 1600 2900 1575 3325 
L 2200 3025 
L 1950 2850 
L 1950 25 
L 3200 25 
L 3200 4500 
L 1675 4500 
Q 1350 4500 1075 4425 
L 850 4650 
L 5075 4650 
L 5450 5025 
L 5975 4500 
L 3550 4500 
L 3550 2525 
L 4775 2525 
L 5125 2875 
L 5625 2375 
L 3550 2375 
L 3550 25 
L 5075 25 
L 5475 425 
L 6025 -125 
L 1200 -125 
Q 875 -125 600 -200 
L 375 25 
L 1600 25 
L 1600 2725 
z
" transform="scale(0.015625)"/>
      <path id="SimSun-6001" d="M 2850 5225 
L 3500 4925 
L 3250 4800 
Q 3200 4475 3125 4025 
L 5050 4025 
L 5425 4400 
L 5950 3875 
L 3350 3875 
Q 3875 2950 4650 2550 
Q 5425 2150 6075 2100 
L 6075 2000 
Q 5600 1925 5550 1675 
Q 4525 2050 3987 2662 
Q 3450 3275 3225 3875 
L 3100 3875 
Q 2850 3125 2500 2675 
Q 2950 2500 3237 2325 
Q 3525 2150 3525 1962 
Q 3525 1775 3462 1700 
Q 3400 1625 3375 1625 
Q 3275 1625 3125 1875 
Q 2900 2225 2425 2575 
Q 1650 1875 300 1550 
L 250 1650 
Q 1225 1925 1850 2462 
Q 2475 3000 2725 3875 
L 1225 3875 
Q 900 3875 625 3800 
L 400 4025 
L 2750 4025 
Q 2850 4750 2850 5225 
z
M 1325 1250 
Q 1325 800 1237 462 
Q 1150 125 1012 62 
Q 875 0 775 0 
Q 650 0 562 37 
Q 475 75 475 125 
Q 475 200 675 375 
Q 975 600 1225 1275 
L 1325 1250 
z
M 2600 1600 
L 2650 1675 
Q 3125 1475 3362 1312 
Q 3600 1150 3587 975 
Q 3575 800 3487 700 
Q 3400 600 3375 600 
Q 3275 600 3200 825 
Q 3075 1125 2600 1600 
z
M 4625 1300 
L 4700 1350 
Q 5300 1025 5525 812 
Q 5750 600 5712 400 
Q 5675 200 5587 125 
Q 5500 50 5475 50 
Q 5375 50 5275 350 
Q 5125 750 4625 1300 
z
M 1900 50 
Q 1900 1075 1875 1625 
L 2450 1325 
L 2250 1150 
L 2250 175 
Q 2200 -150 2550 -125 
L 3875 -125 
Q 4175 -125 4225 125 
Q 4275 375 4275 900 
L 4400 900 
Q 4425 450 4475 200 
Q 4525 -50 4775 -100 
Q 4575 -450 4075 -425 
L 2575 -425 
Q 1875 -475 1900 50 
z
" transform="scale(0.015625)"/>
      <path id="SimSun-5206" d="M 2350 5050 
L 2850 4675 
L 2625 4550 
Q 2200 3750 1687 3125 
Q 1175 2500 375 2025 
L 325 2100 
Q 975 2625 1475 3337 
Q 1975 4050 2350 5050 
z
M 4100 4975 
L 3900 4850 
Q 4175 3850 4800 3300 
Q 5425 2750 6125 2625 
L 6125 2550 
Q 5750 2500 5600 2225 
Q 4775 2675 4287 3425 
Q 3800 4175 3625 5175 
L 4100 4975 
z
M 1375 2625 
L 4225 2625 
L 4475 2875 
L 4825 2525 
L 4625 2375 
Q 4575 400 4375 -12 
Q 4175 -425 3675 -600 
Q 3600 -200 2975 -25 
L 2975 75 
Q 3600 -25 3787 -12 
Q 3975 0 4075 275 
Q 4175 550 4275 2475 
L 2975 2475 
Q 2825 1400 2375 662 
Q 1925 -75 650 -625 
L 600 -525 
Q 1725 50 2112 837 
Q 2500 1625 2575 2475 
L 1800 2475 
L 1575 2425 
L 1375 2625 
z
" transform="scale(0.015625)"/>
      <path id="SimSun-5e03" d="M 3425 2725 
Q 3425 3225 3400 3625 
L 3975 3375 
L 3775 3200 
L 3775 2725 
L 4950 2725 
L 5150 2975 
L 5575 2650 
L 5350 2500 
L 5350 500 
Q 5300 100 4800 -50 
Q 4800 225 4175 475 
L 4175 575 
Q 4625 500 4812 500 
Q 5000 500 5000 700 
L 5000 2575 
L 3775 2575 
L 3775 550 
Q 3775 -25 3800 -500 
L 3400 -675 
Q 3425 250 3425 1025 
L 3425 2575 
L 2275 2575 
L 2275 125 
L 1900 -25 
Q 1925 775 1925 2525 
Q 1225 1650 300 1025 
L 250 1100 
Q 1300 2050 1762 2800 
Q 2225 3550 2375 3875 
L 825 3875 
L 600 3825 
L 400 4025 
L 2425 4025 
Q 2750 4725 2850 5225 
L 3450 4850 
L 3200 4725 
L 2825 4025 
L 5175 4025 
L 5550 4400 
L 6075 3875 
L 2775 3875 
Q 2500 3350 2175 2850 
L 2250 2725 
L 3425 2725 
z
" transform="scale(0.015625)"/>
      <path id="SimSun-6a21" d="M 1275 -625 
Q 1300 225 1300 2575 
Q 950 1675 275 925 
L 225 975 
Q 1000 2200 1250 3625 
L 675 3625 
L 450 3575 
L 250 3775 
L 1300 3775 
Q 1300 4900 1275 5250 
L 1875 5000 
L 1625 4825 
L 1625 3775 
L 1900 3775 
L 2200 4075 
L 2650 3625 
L 1625 3625 
L 1625 3000 
Q 2200 2725 2337 2562 
Q 2475 2400 2475 2250 
Q 2475 2150 2412 2012 
Q 2350 1875 2300 1875 
Q 2225 1875 2125 2150 
Q 1950 2550 1625 2850 
Q 1625 250 1650 -475 
L 1275 -625 
z
M 4475 4400 
Q 4475 4825 4450 5275 
L 5025 5000 
L 4800 4825 
L 4800 4400 
L 5300 4400 
L 5600 4700 
L 6050 4250 
L 4800 4250 
Q 4800 3975 4825 3775 
L 4475 3650 
L 4475 4250 
L 3625 4250 
L 3625 3775 
L 3275 3600 
Q 3300 3900 3300 4250 
L 2675 4250 
L 2450 4200 
L 2250 4400 
L 3300 4400 
Q 3300 4750 3275 5250 
L 3825 5000 
L 3625 4850 
L 3625 4400 
L 4475 4400 
z
M 2825 1500 
Q 2850 2175 2850 2625 
Q 2850 3075 2825 3675 
L 3175 3475 
L 5000 3475 
L 5200 3700 
L 5550 3400 
L 5350 3250 
Q 5350 1975 5375 1700 
L 5025 1550 
L 5025 1850 
L 4150 1850 
Q 4125 1525 4075 1125 
L 5325 1125 
L 5650 1450 
L 6125 975 
L 4275 975 
Q 4550 550 4987 237 
Q 5425 -75 6100 -125 
L 6100 -225 
Q 5775 -275 5625 -550 
Q 4650 -175 4150 975 
L 4050 975 
Q 3650 -425 1875 -650 
L 1850 -575 
Q 2675 -375 3100 37 
Q 3525 450 3700 975 
L 2850 975 
Q 2525 975 2250 900 
L 2025 1125 
L 3725 1125 
Q 3775 1375 3800 1850 
L 3175 1850 
L 3175 1650 
L 2825 1500 
z
M 3175 3325 
L 3175 2750 
L 5025 2750 
L 5025 3325 
L 3175 3325 
z
M 3175 2600 
L 3175 2000 
L 5025 2000 
L 5025 2600 
L 3175 2600 
z
" transform="scale(0.015625)"/>
      <path id="SimSun-578b" d="M 2575 1675 
Q 2600 2250 2600 2600 
L 2600 3400 
L 1875 3400 
Q 1825 2075 500 1350 
L 450 1425 
Q 1475 2200 1550 3400 
L 1300 3400 
Q 975 3400 700 3325 
L 475 3550 
L 1550 3550 
L 1550 4600 
L 1225 4600 
L 925 4550 
L 725 4750 
L 3000 4750 
L 3300 5050 
L 3750 4600 
L 2925 4600 
L 2925 3550 
L 3200 3550 
L 3525 3875 
L 4000 3400 
L 2925 3400 
L 2925 2600 
Q 2925 2100 2950 1875 
L 2575 1675 
z
M 1875 4600 
L 1875 3550 
L 2600 3550 
L 2600 4600 
L 1875 4600 
z
M 4175 2525 
Q 4200 3100 4200 3650 
Q 4200 4200 4175 4600 
L 4700 4400 
L 4525 4225 
L 4525 2650 
L 4175 2525 
z
M 5200 5225 
L 5725 4975 
L 5550 4800 
L 5550 2225 
Q 5600 1750 5025 1525 
Q 5000 1825 4250 2000 
L 4250 2125 
Q 4900 2050 5062 2062 
Q 5225 2075 5225 2375 
L 5225 4450 
Q 5225 4775 5200 5225 
z
M 3025 1025 
Q 3025 1400 3000 1850 
L 3600 1600 
L 3375 1425 
L 3375 1025 
L 4550 1025 
L 4900 1375 
L 5400 875 
L 3375 875 
L 3375 -150 
L 5025 -150 
L 5425 250 
L 5975 -300 
L 1275 -300 
Q 950 -300 675 -375 
L 450 -150 
L 3025 -150 
L 3025 875 
L 2000 875 
Q 1675 875 1400 800 
L 1175 1025 
L 3025 1025 
z
" transform="scale(0.015625)"/>
      <path id="SimSun-62df" d="M 3150 1050 
L 4250 1900 
L 4325 1825 
Q 4000 1500 3625 1087 
Q 3250 675 3050 300 
L 2675 675 
Q 2800 800 2800 1125 
L 2800 3125 
Q 2800 3850 2775 4650 
L 3375 4350 
L 3150 4175 
L 3150 1050 
z
M 5050 1175 
Q 5725 700 5887 450 
Q 6050 200 6000 -12 
Q 5950 -225 5850 -325 
Q 5750 -425 5625 25 
Q 5475 475 5000 1025 
Q 4375 -225 2625 -675 
L 2600 -575 
Q 3250 -300 3712 37 
Q 4175 375 4500 912 
Q 4825 1450 4850 2400 
Q 4875 3350 4875 3750 
Q 4875 4525 4825 5000 
L 5500 4675 
L 5250 4475 
Q 5250 3650 5237 2775 
Q 5225 1900 5050 1175 
z
M 1375 3850 
Q 1375 4875 1350 5225 
L 1925 4950 
L 1725 4750 
L 1725 3850 
L 2050 3850 
L 2325 4125 
L 2750 3700 
L 1725 3700 
L 1725 2525 
L 2575 2975 
L 2625 2875 
L 1725 2275 
L 1725 100 
Q 1700 -350 1175 -550 
Q 1200 -275 450 0 
L 450 100 
Q 1000 0 1200 12 
Q 1400 25 1375 350 
L 1375 2050 
Q 675 1600 600 1425 
L 250 1875 
Q 550 1950 1375 2375 
L 1375 3700 
L 775 3700 
L 450 3650 
L 250 3850 
L 1375 3850 
z
M 3575 4775 
Q 4050 4375 4200 4150 
Q 4350 3925 4350 3775 
Q 4350 3700 4312 3587 
Q 4275 3475 4200 3412 
Q 4125 3350 4100 3350 
Q 4000 3350 3950 3700 
Q 3850 4125 3500 4725 
L 3575 4775 
z
" transform="scale(0.015625)"/>
      <path id="SimSun-5408" d="M 3575 4875 
L 3350 4750 
Q 3650 4225 4312 3662 
Q 4975 3100 6125 2825 
L 6125 2750 
Q 5750 2675 5600 2400 
Q 4500 3000 3962 3612 
Q 3425 4225 3250 4625 
Q 2575 3600 1887 3075 
Q 1200 2550 300 2225 
L 275 2325 
Q 1250 2825 1937 3500 
Q 2625 4175 3050 5225 
L 3575 4875 
z
M 1525 2700 
L 4025 2700 
L 4350 3025 
L 4825 2550 
L 2300 2550 
Q 2025 2550 1750 2475 
L 1525 2700 
z
M 1975 1500 
L 1975 100 
L 4375 100 
L 4375 1500 
L 1975 1500 
z
M 4725 1375 
Q 4725 250 4750 -325 
L 4375 -475 
L 4375 -50 
L 1975 -50 
L 1975 -375 
L 1600 -525 
Q 1625 100 1625 675 
Q 1625 1250 1600 1850 
L 1975 1650 
L 4325 1650 
L 4575 1900 
L 4925 1550 
L 4725 1375 
z
" transform="scale(0.015625)"/>
     </defs>
     <use xlink:href="#SimSun-58"/>
     <use xlink:href="#SimSun-65" x="50"/>
     <use xlink:href="#SimSun-6e" x="100"/>
     <use xlink:href="#SimSun-6f" x="150"/>
     <use xlink:href="#SimSun-6d" x="200"/>
     <use xlink:href="#SimSun-61" x="250"/>
     <use xlink:href="#SimSun-69" x="300"/>
     <use xlink:href="#SimSun-20" x="350"/>
     <use xlink:href="#SimSun-7cfb" x="400"/>
     <use xlink:href="#SimSun-7edf" x="500"/>
     <use xlink:href="#SimSun-31" x="600"/>
     <use xlink:href="#SimSun-30" x="650"/>
     <use xlink:href="#SimSun-30" x="700"/>
     <use xlink:href="#SimSun-25" x="750"/>
     <use xlink:href="#SimSun-20" x="800"/>
     <use xlink:href="#SimSun-43" x="850"/>
     <use xlink:href="#SimSun-50" x="900"/>
     <use xlink:href="#SimSun-55" x="950"/>
     <use xlink:href="#SimSun-8d1f" x="1000"/>
     <use xlink:href="#SimSun-8f7d" x="1100"/>
     <use xlink:href="#SimSun-4e0b" x="1200"/>
     <use xlink:href="#SimSun-5ef6" x="1300"/>
     <use xlink:href="#SimSun-65f6" x="1400"/>
     <use xlink:href="#SimSun-76f4" x="1500"/>
     <use xlink:href="#SimSun-65b9" x="1600"/>
     <use xlink:href="#SimSun-56fe" x="1700"/>
     <use xlink:href="#SimSun-4e0e" x="1800"/>
     <use xlink:href="#SimSun-5bf9" x="1900"/>
     <use xlink:href="#SimSun-6570" x="2000"/>
     <use xlink:href="#SimSun-6b63" x="2100"/>
     <use xlink:href="#SimSun-6001" x="2200"/>
     <use xlink:href="#SimSun-5206" x="2300"/>
     <use xlink:href="#SimSun-5e03" x="2400"/>
     <use xlink:href="#SimSun-6a21" x="2500"/>
     <use xlink:href="#SimSun-578b" x="2600"/>
     <use xlink:href="#SimSun-62df" x="2700"/>
     <use xlink:href="#SimSun-5408" x="2800"/>
    </g>
    <!--  平均延时= 16.64, 标准差 = 6.77 -->
    <g transform="translate(245 37.2) scale(0.16 -0.16)">
     <defs>
      <path id="SimSun-5e73" d="M 3375 750 
Q 3375 200 3400 -350 
L 2975 -525 
Q 3000 250 3000 875 
L 3000 2325 
L 1050 2325 
Q 725 2325 450 2250 
L 225 2475 
L 3000 2475 
L 3000 4575 
L 1600 4575 
Q 1275 4575 1000 4500 
L 775 4725 
L 4850 4725 
L 5200 5075 
L 5700 4575 
L 3375 4575 
L 3375 2475 
L 5200 2475 
L 5575 2850 
L 6100 2325 
L 3375 2325 
L 3375 750 
z
M 4750 4325 
L 5275 3925 
Q 5075 3925 4725 3475 
Q 4350 3025 3925 2625 
L 3850 2675 
Q 4500 3550 4750 4325 
z
M 1300 4200 
Q 2025 3675 2150 3487 
Q 2275 3300 2275 3150 
Q 2275 3075 2237 2962 
Q 2200 2850 2062 2750 
Q 1925 2650 1800 3100 
Q 1675 3525 1225 4150 
L 1300 4200 
z
" transform="scale(0.015625)"/>
      <path id="SimSun-5747" d="M 4075 4875 
L 3825 4725 
Q 3650 4325 3475 3925 
L 5400 3925 
L 5625 4175 
L 5975 3850 
L 5775 3675 
Q 5725 800 5612 337 
Q 5500 -125 5275 -312 
Q 5050 -500 4725 -625 
Q 4625 -250 3800 -25 
L 3800 100 
Q 4575 -50 4887 -12 
Q 5200 25 5287 750 
Q 5375 1475 5425 3775 
L 3425 3775 
Q 2975 2950 2500 2450 
L 2400 2500 
Q 2875 3200 3150 3950 
Q 3425 4700 3475 5200 
L 4075 4875 
z
M 3500 3175 
Q 4075 2850 4237 2637 
Q 4400 2425 4400 2300 
Q 4400 2175 4287 2025 
Q 4175 1875 4125 1875 
Q 4050 1875 3975 2125 
Q 3875 2500 3425 3100 
L 3500 3175 
z
M 4975 1750 
Q 4525 1425 3850 1000 
Q 3150 550 2900 225 
L 2525 700 
Q 2875 800 3462 1075 
Q 4050 1350 4925 1850 
L 4975 1750 
z
M 1700 1100 
L 2775 1500 
L 2825 1375 
Q 1875 925 1325 637 
Q 775 350 650 175 
L 275 675 
Q 950 850 1350 1000 
L 1350 3150 
L 750 3150 
L 525 3100 
L 325 3300 
L 1350 3300 
Q 1350 4700 1325 5175 
L 1925 4875 
L 1700 4675 
L 1700 3300 
L 1975 3300 
L 2250 3575 
L 2650 3150 
L 1700 3150 
L 1700 1100 
z
" transform="scale(0.015625)"/>
      <path id="SimSun-3d" d="M 200 2825 
L 200 3050 
L 2975 3050 
L 2975 2825 
L 200 2825 
z
M 200 1550 
L 200 1775 
L 2975 1775 
L 2975 1550 
L 200 1550 
z
" transform="scale(0.015625)"/>
      <path id="SimSun-2c" d="M 450 550 
Q 450 650 537 750 
Q 625 850 800 850 
Q 1000 850 1112 687 
Q 1225 525 1225 350 
Q 1225 0 1025 -300 
Q 825 -600 450 -750 
L 350 -625 
Q 600 -475 725 -312 
Q 850 -150 850 25 
Q 850 150 650 250 
Q 450 350 450 550 
z
" transform="scale(0.015625)"/>
      <path id="SimSun-6807" d="M 4775 2225 
Q 5725 1275 5825 1050 
Q 5925 825 5925 700 
Q 5925 525 5825 375 
Q 5725 225 5700 225 
Q 5575 225 5475 650 
Q 5300 1225 4700 2175 
L 4775 2225 
z
M 2750 4600 
L 4975 4600 
L 5275 4900 
L 5725 4450 
L 3175 4450 
L 2950 4400 
L 2750 4600 
z
M 3100 75 
Q 3775 -50 3900 -25 
Q 4025 0 4025 175 
L 4025 2950 
L 2800 2950 
L 2575 2900 
L 2375 3100 
L 5350 3100 
L 5675 3425 
L 6150 2950 
L 4400 2950 
L 4400 -25 
Q 4375 -425 3850 -600 
Q 3850 -300 3100 -50 
L 3100 75 
z
M 3125 2275 
L 3675 1950 
L 3425 1825 
Q 2800 700 2100 25 
L 2025 100 
Q 2725 1025 3125 2275 
z
M 1675 2725 
Q 1675 25 1700 -475 
L 1300 -625 
Q 1325 450 1325 2325 
Q 950 1450 350 700 
L 275 800 
Q 975 1925 1325 3475 
L 700 3475 
L 475 3425 
L 275 3625 
L 1325 3625 
Q 1325 4575 1300 5275 
L 1900 4975 
L 1675 4800 
L 1675 3625 
L 2000 3625 
L 2275 3900 
L 2700 3475 
L 1675 3475 
L 1675 2850 
Q 2150 2600 2312 2425 
Q 2475 2250 2475 2125 
Q 2475 2050 2400 1912 
Q 2325 1775 2275 1775 
Q 2200 1775 2100 2075 
Q 1925 2475 1675 2725 
z
" transform="scale(0.015625)"/>
      <path id="SimSun-51c6" d="M 2575 -600 
Q 2600 300 2600 550 
L 2600 3375 
Q 2200 2725 1675 2200 
L 1600 2250 
Q 2100 2950 2462 3812 
Q 2825 4675 2925 5175 
L 3450 4850 
L 3250 4725 
Q 3025 4275 2875 3950 
L 5175 3950 
L 5525 4300 
L 6025 3800 
L 4450 3800 
L 4450 2775 
L 5000 2775 
L 5325 3100 
L 5800 2625 
L 4450 2625 
L 4450 1450 
L 5100 1450 
L 5425 1775 
L 5900 1300 
L 4450 1300 
L 4450 100 
L 5250 100 
L 5600 450 
L 6100 -50 
L 2950 -50 
L 2950 -425 
L 2575 -600 
z
M 4100 3800 
L 2950 3800 
L 2950 2775 
L 4100 2775 
L 4100 3800 
z
M 2950 2625 
L 2950 1450 
L 4100 1450 
L 4100 2625 
L 2950 2625 
z
M 2950 1300 
L 2950 100 
L 4100 100 
L 4100 1300 
L 2950 1300 
z
M 3875 5150 
L 3950 5200 
Q 4675 4725 4650 4500 
Q 4625 4275 4525 4187 
Q 4425 4100 4375 4100 
Q 4275 4100 4250 4350 
Q 4175 4675 3875 5150 
z
M 500 4875 
Q 1350 4375 1337 4137 
Q 1325 3900 1225 3787 
Q 1125 3675 1075 3675 
Q 1000 3675 925 3925 
Q 825 4275 450 4825 
L 500 4875 
z
M 300 1825 
Q 625 1825 862 1887 
Q 1100 1950 2100 4500 
L 2200 4475 
Q 1750 3150 1500 2450 
Q 1225 1750 1200 1137 
Q 1175 525 1200 175 
Q 1200 -200 1012 -137 
Q 825 -75 750 37 
Q 675 150 675 300 
Q 675 450 700 550 
Q 775 850 825 1100 
Q 875 1350 787 1500 
Q 700 1650 300 1725 
L 300 1825 
z
" transform="scale(0.015625)"/>
      <path id="SimSun-5dee" d="M 1600 5100 
L 1650 5175 
Q 2300 4925 2400 4775 
Q 2500 4625 2500 4525 
Q 2500 4400 2437 4287 
Q 2375 4175 2325 4175 
Q 2250 4175 2175 4375 
Q 2025 4700 1600 5100 
z
M 3200 3925 
Q 3100 3450 3025 3175 
L 4650 3175 
L 4975 3500 
L 5450 3025 
L 3000 3025 
Q 2900 2675 2725 2275 
L 5075 2275 
L 5475 2675 
L 6025 2125 
L 2675 2125 
Q 1900 675 350 -200 
L 325 -100 
Q 1650 825 2325 2125 
L 950 2125 
L 600 2075 
L 400 2275 
L 2375 2275 
Q 2525 2650 2650 3025 
L 1550 3025 
L 1225 2975 
L 1025 3175 
L 2675 3175 
Q 2775 3575 2825 3925 
L 1250 3925 
L 900 3875 
L 700 4075 
L 3750 4075 
Q 4200 4925 4250 5250 
L 4800 4925 
Q 4550 4900 3900 4075 
L 5050 4075 
L 5425 4450 
L 5950 3925 
L 3200 3925 
z
M 2150 1275 
L 4650 1275 
L 4950 1575 
L 5400 1125 
L 3850 1125 
L 3850 -175 
L 5200 -175 
L 5550 175 
L 6050 -325 
L 2050 -325 
Q 1725 -325 1450 -400 
L 1225 -175 
L 3500 -175 
L 3500 1125 
L 2625 1125 
L 2350 1075 
L 2150 1275 
z
" transform="scale(0.015625)"/>
      <path id="SimSun-37" d="M 2825 4200 
Q 2300 3350 1987 2537 
Q 1675 1725 1675 1125 
Q 1675 1025 1700 850 
Q 1700 650 1700 400 
Q 1700 200 1637 125 
Q 1575 50 1425 50 
Q 1300 50 1212 137 
Q 1125 225 1125 450 
Q 1125 925 1337 1625 
Q 1550 2325 2475 4000 
L 1225 4000 
Q 950 4000 787 3825 
Q 625 3650 550 3300 
L 400 3325 
L 575 4375 
L 2825 4375 
L 2825 4200 
z
" transform="scale(0.015625)"/>
     </defs>
     <use xlink:href="#SimSun-20"/>
     <use xlink:href="#SimSun-5e73" x="50"/>
     <use xlink:href="#SimSun-5747" x="150"/>
     <use xlink:href="#SimSun-5ef6" x="250"/>
     <use xlink:href="#SimSun-65f6" x="350"/>
     <use xlink:href="#SimSun-3d" x="450"/>
     <use xlink:href="#SimSun-20" x="500"/>
     <use xlink:href="#SimSun-31" x="550"/>
     <use xlink:href="#SimSun-36" x="600"/>
     <use xlink:href="#SimSun-2e" x="650"/>
     <use xlink:href="#SimSun-36" x="700"/>
     <use xlink:href="#SimSun-34" x="750"/>
     <use xlink:href="#SimSun-2c" x="800"/>
     <use xlink:href="#SimSun-20" x="850"/>
     <use xlink:href="#SimSun-6807" x="900"/>
     <use xlink:href="#SimSun-51c6" x="1000"/>
     <use xlink:href="#SimSun-5dee" x="1100"/>
     <use xlink:href="#SimSun-20" x="1200"/>
     <use xlink:href="#SimSun-3d" x="1250"/>
     <use xlink:href="#SimSun-20" x="1300"/>
     <use xlink:href="#SimSun-36" x="1350"/>
     <use xlink:href="#SimSun-2e" x="1400"/>
     <use xlink:href="#SimSun-37" x="1450"/>
     <use xlink:href="#SimSun-37" x="1500"/>
    </g>
   </g>
  </g>
 </g>
 <defs>
  <clipPath id="p9fc4190f57">
   <rect x="90" y="43.2" width="558" height="277.2"/>
  </clipPath>
 </defs>
</svg>
